<svg width="336" height="347" viewBox="0 0 336 347" fill="none" xmlns="http://www.w3.org/2000/svg">
<path d="M110.879 239.07C118.349 244.419 200.002 283.141 241.539 300.294C241.737 297.537 263.571 248.776 275.854 224.728C273.952 223.616 289.164 182.939 290.168 182.429C296.782 183.657 315.516 153.01 312.524 149.405C310.131 146.522 283.276 133.681 270.147 127.621C256.277 117.268 218.219 107.419 217.033 104.661C216.085 102.454 191.476 90.8501 179.291 85.3238C177.367 82.7705 173.864 77.1644 175.24 75.1665C176.617 73.1685 185.51 69.7004 189.785 68.216C197.561 65.2522 176.213 37.4456 164.567 23.9127C116.839 41.6339 80.1 82.1615 67.6967 100.21C68.1177 123.754 54.0503 139.518 46.964 144.457C44.5956 156.562 42.3092 183.572 41.4621 195.564C41.2609 208.685 48.2324 248.293 51.7434 266.457C74.8248 268.902 95.4603 260.58 102.893 256.113L99.6487 246.279C98.7008 238.445 103.167 233.549 110.879 239.07Z" stroke="#0315B6" stroke-width="2"/>
<path d="M248.655 172.809V160.484H247.601C246.938 161.81 246.003 162.065 244.252 162.116V163.17H247.108V172.809H248.655Z" fill="#0315B6"/>
</svg>
