<svg width="210" height="198" viewBox="0 0 210 198" fill="none" xmlns="http://www.w3.org/2000/svg">
<path d="M102.872 196.278L206.988 157.123L163.222 135.87L151.081 138.468L147.146 128.349L149.029 127.55L145.943 111.467L95.6931 105.419L101.121 101.866L116.812 99.7939L122.438 95.9451L123.425 90.4185L129.839 89.8264L138.496 83.5536C139.683 70.9389 128.107 23.6337 122.171 1.55796H30.3433C24.7038 1.26114 18.0996 6.99961 15.5024 9.90594L19.2126 28.2715L1.21826 44.7819L11.4213 99.3219H26.4477L29.2303 109.711H50.193L2.33154 120.099L3.4449 148.853L61.048 166.662V174.92L102.872 196.278Z" stroke="#0315B6" stroke-width="2"/>
<path d="M64.2359 64.2852V51.9602H63.1819C62.5189 53.2862 61.5839 53.5412 59.8329 53.5922V54.6462H62.6889V64.2852H64.2359ZM74.6427 58.1142C74.6427 61.5652 73.4527 63.2142 71.4977 63.2142C69.5427 63.2142 68.3527 61.5652 68.3527 58.1142C68.3527 54.6972 69.5427 53.0312 71.4977 53.0312C73.4187 53.0312 74.6427 54.6972 74.6427 58.1142ZM76.2917 58.1142C76.2917 54.2212 74.7787 51.7392 71.4977 51.7392C68.2167 51.7392 66.7037 54.2212 66.7037 58.1142C66.7037 62.0072 68.2167 64.5062 71.4977 64.5062C74.7787 64.5062 76.2917 62.0072 76.2917 58.1142Z" fill="#0315B6"/>
</svg>
