<svg width="806" height="386" viewBox="0 0 806 386" fill="none" xmlns="http://www.w3.org/2000/svg">
<path d="M186.215 52.7444C185.597 42.1413 190.501 17.9782 193.031 7.22199L399.596 8.07996L413.283 2.41166L631.176 12.198L630.994 55.9205L708.192 56.2411L722.501 65.1818L722.257 123.934C727.239 130.559 744.572 146.298 774.044 156.258C803.516 166.218 792.564 193.227 783.404 205.486L794.975 215.782C827.472 286.967 766.058 325.595 731.289 336.012L731.194 358.953L695.144 358.803C697.228 358.812 694.241 366.96 692.487 371.033C699.562 375.551 709.457 384.568 692.431 384.498C669.848 383.709 677.557 375.17 684.234 370.999L679.41 358.738L114.005 353.915L110.004 365.753C121.575 370.543 113.033 376.523 107.315 378.914C101.827 379 91.185 377.793 92.5251 372.266C93.8652 366.74 100.126 365.602 103.089 365.724L103.128 356.345L78.9461 356.244L79.0631 328.086C9.51283 323.822 -0.937327 247.696 2.53138 210.165L12.5379 193.643C3.31151 181.679 8.80135 162.708 12.6996 154.719L84.0709 119.403L90.147 52.3453L186.215 52.7444Z" stroke="#0315B6" stroke-width="2"/>
<path d="M334.645 186.877V174.552H333.591C332.928 175.878 331.993 176.133 330.242 176.184V177.238H333.098V186.877H334.645ZM341.236 186.877V174.552H340.182C339.519 175.878 338.584 176.133 336.833 176.184V177.238H339.689V186.877H341.236Z" fill="#0315B6"/>
</svg>
