<svg width="185" height="114" viewBox="0 0 185 114" fill="none" xmlns="http://www.w3.org/2000/svg">
<path d="M4.09172 49.822C11.6347 63.2937 59.8956 66.4549 79.2038 65.092C82.1781 81.3043 79.2038 86.4816 74.782 93.5144C67.3067 95.4435 57.9557 100.507 63.7911 104.968C82.3587 115.096 112.366 113.687 124.396 104.968C128.341 102.109 120.583 95.3469 113.707 93.5144C107.941 88.7727 106.195 77.277 105.026 65.092C119.745 65.092 151.92 62.6256 165.208 60.3541C188.709 51.3155 193.608 18.0204 155.992 6.04753C105.026 -1.61968 53.7176 -0.0574102 27.6248 7.76742C7.66631 13.7527 -3.14848 36.891 4.09172 49.822Z" stroke="#0315B6" stroke-width="2"/>
<path d="M119.095 44.6016V32.2766H118.041C117.378 33.6026 116.443 33.8576 114.692 33.9086V34.9626H117.548V44.6016H119.095ZM125.881 32.0556C123.246 32.0556 121.546 33.6706 121.597 36.1186H123.195C123.246 34.0786 124.521 33.3476 125.847 33.3476C127.326 33.3476 128.159 34.1976 128.159 35.4896C128.159 37.6826 125.609 39.9946 121.257 43.2076V44.6016H130.131V43.1566H123.365C126.816 40.6576 129.791 38.1416 129.791 35.2856C129.791 33.1946 128.159 32.0556 125.881 32.0556Z" fill="#0315B6"/>
</svg>
