<svg width="189" height="193" viewBox="0 0 189 193" fill="none" xmlns="http://www.w3.org/2000/svg">
<path d="M180.52 154.999L51.2077 191.128C50.2581 191.595 49.6686 191.322 49.4925 191.128L7.22992 150.783C5.34449 148.848 6.60971 148.364 7.478 148.364H10.7651V133.417L6.8578 130.13C4.22812 128.195 6.01018 127.629 7.22992 127.587L15.2926 125.975V115.369L3.13676 109.601C0.9538 108.361 4.70788 107.555 6.8578 107.307V89.2585L3.13676 87.4599C0.507084 86.4676 0.883584 86.0128 1.40054 85.9094L31.7907 76.1102V63.582L22.1155 55.1472C20.3789 53.609 23.4179 53.5139 25.1545 53.6587V41.1925L14.673 36.541C13.3334 35.5982 14.1148 34.825 14.673 34.5563L19.0764 34.0601L18.3942 16.8184L14.673 15.0818C12.9364 14.4864 13.2767 13.9824 13.6639 13.8048L106.645 2.01562L150.009 15.3426C155.749 16.4907 156.843 18.8281 156.672 19.8532L155.852 33.7952C156.426 37.9778 152.196 39.2968 150.009 39.4335L155.852 43.0215C158.722 43.2676 159.577 45.7894 159.645 47.0196L158.722 60.4491C164.545 61.8433 165.727 64.3105 165.591 65.3698L164.873 75.8263L174.51 78.7992C179.84 78.0611 178.576 92.297 177.277 99.5072L173.902 101.701L185.17 106.351C188.889 105.35 187.793 120.242 186.779 127.814L176.406 131.212L180.52 134.61C183.811 134.61 181.891 148.203 180.52 154.999Z" stroke="#0315B6" stroke-width="2"/>
<path d="M68.9849 104.916V92.591H67.9309C67.2679 93.917 66.3329 94.172 64.5819 94.223V95.277H67.4379V104.916H68.9849ZM75.4307 103.845C73.6797 103.845 72.8127 102.791 72.6257 101.278H71.0277C71.2147 103.335 72.4897 105.137 75.4137 105.137C77.7767 105.137 79.8677 103.93 79.8677 101.448C79.8677 100.139 79.3577 98.949 77.5217 98.354C78.8137 97.827 79.5277 96.773 79.5277 95.498C79.5277 93.237 77.6577 92.37 75.5327 92.37C72.9487 92.37 71.4017 93.883 71.2147 96.059H72.8127C72.9487 94.648 73.8497 93.662 75.4987 93.662C76.8077 93.662 77.8957 94.359 77.8957 95.668C77.8957 97.113 76.7737 97.708 74.6147 97.708H74.4107V99.119H74.6657C76.6377 99.119 78.2187 99.697 78.2187 101.465C78.2187 103.012 77.0627 103.845 75.4307 103.845Z" fill="#0315B6"/>
</svg>
