<svg width="170" height="221" viewBox="0 0 170 221" fill="none" xmlns="http://www.w3.org/2000/svg">
<path d="M162.202 195.913H138.928C136.175 195.913 135.159 194.869 140.788 190.223C149.072 185.915 155.714 175.478 160.159 165.93C164.329 156.972 165.581 147.039 165.859 137.162L166.363 119.25C168.813 118.449 168.036 116.814 167.342 116.097L138.933 115.696C155.887 94.952 147.791 77.0693 141.898 71.1791C140.497 61.5241 131.192 62.16 126.715 63.6848C123.601 59.4024 114.452 63.6524 110.267 66.3127H107.736C106.101 62.186 103.356 61.4138 102.188 61.5436L99.6578 57.7478C106.51 48.4043 98.8791 32.1829 94.2074 25.2401C96.0828 21.8773 97.9113 18.3024 97.879 14.4522C97.7268 -3.67985 66.6516 -2.30444 60.5317 12.1008C54.4585 13.113 46.5813 20.6981 43.402 24.3642L2.81608 93.078C-2.16714 100.553 6.25494 114.62 11.0889 120.719C15.9942 132.554 29.5488 131.555 35.713 129.576L32.8904 151.572C25.0354 152.178 23.9863 167.389 29.4839 170.357C30.4962 178.844 21.86 193.034 17.4155 199.069V205.103L20.5296 210.845C20.5296 216.204 36.3938 215.551 37.6218 211.486L78.0076 214.053L84.8524 219.7H117.538L123.869 212.684L141.666 211.486L146.629 216.62H160.833L165.795 209.604C167.712 203.032 164.198 197.739 162.202 195.913Z" stroke="#0315B6" stroke-width="2"/>
<path d="M62.3258 154.754V142.429H61.2718C60.6088 143.755 59.6738 144.01 57.9228 144.061V145.115H60.7788V154.754H62.3258ZM70.3865 144.554V150.249H65.9835L70.3865 144.554ZM74.2115 150.249H71.9505V142.429H70.3695L64.2665 150.249V151.711H70.3865V154.754H71.9505V151.711H74.2115V150.249Z" fill="#0315B6"/>
</svg>
