<svg width="256" height="366" viewBox="0 0 256 366" fill="none" xmlns="http://www.w3.org/2000/svg">
<path d="M16.9313 335.135H29.0986L50.8715 215.423L114.909 225.883L111.707 311.308H123.234L128.997 225.883L139.884 364.772H156.533L152.051 225.883L214.808 215.423L227.615 339.783L242.984 335.135L239.782 191.597C293.574 176.72 188.339 168.352 128.997 166.027C130.022 126.046 116.19 40.1171 109.146 2.15039C98.8997 12.8431 33.1544 9.70529 1.5625 6.79981C39.985 117.446 27.8178 271.793 16.9313 335.135Z" stroke="#0315B6" stroke-width="2"/>
<path d="M64.2496 165.832V153.507H63.1956C62.5326 154.833 61.5976 155.088 59.8466 155.139V156.193H62.7026V165.832H64.2496ZM71.0354 164.761C69.3184 164.761 68.5024 163.826 68.2474 162.262H66.6494C66.8704 164.251 68.1964 166.053 71.0354 166.053C73.3304 166.053 75.4214 164.591 75.4214 161.769C75.4214 159.049 73.5344 157.519 71.3754 157.519C70.3554 157.519 69.3864 157.825 68.7234 158.454L69.1484 154.952H74.9624V153.507H67.8904L67.0914 160.137L68.6384 160.222C68.9104 159.61 69.7434 158.862 71.0184 158.862C72.3614 158.862 73.7894 159.746 73.7894 161.786C73.7894 163.69 72.5144 164.761 71.0354 164.761Z" fill="#0315B6"/>
</svg>
