<svg width="289" height="343" viewBox="0 0 289 343" fill="none" xmlns="http://www.w3.org/2000/svg">
<path d="M60.8968 248.106C73.5572 227.726 149.901 124.954 197.763 72.1146C199.498 70.1993 201.071 68.1947 202.342 65.9444C207.506 56.7973 212.844 43.5879 218.673 28.9172C225.312 12.2065 229.861 5.73878 233.391 3.71478C236.67 1.8345 239.108 6.36037 238.634 10.1106C234.692 41.2981 228.512 60.9872 213.527 77.5157C217.586 80.6807 217.672 83.9122 216.754 89.2848C246.736 74.534 245.418 122.884 219.382 109.613C215.491 117.669 199.473 109.505 190.072 103.784L89.2373 233.09L93.5657 242.778L94.5483 247.248C95.3465 250.879 95.1017 254.663 93.8419 258.161C126.427 281.102 73.8067 301.792 80.2594 265.077C73.7025 267.391 66.9469 265.96 64.3887 264.955C58.9538 271.924 48.4664 283.941 43.8839 287.913C32.2858 299.082 4.67415 312.695 4.96021 302.47C5.44977 284.971 43.533 276.058 60.8968 248.106Z" stroke="#0315B6" stroke-width="2"/>
<path d="M73.431 254.9V242.575H72.377C71.714 243.901 70.779 244.156 69.028 244.207V245.261H71.884V254.9H73.431ZM77.6838 250.956C77.6838 249.273 78.7718 248.032 80.3868 248.032C81.9678 248.032 83.0728 249.273 83.0728 250.956C83.0728 252.639 81.9338 253.829 80.3698 253.829C78.7378 253.829 77.6838 252.656 77.6838 250.956ZM80.5228 243.646C81.7978 243.646 82.6308 244.326 82.8348 245.431H84.5178C84.2458 243.867 83.1238 242.354 80.7098 242.354C77.1228 242.354 75.8988 245.703 75.8988 249.171C75.8988 252.979 77.3098 255.121 80.3868 255.121C83.0218 255.121 84.7218 253.166 84.7218 250.871C84.7218 248.406 83.0388 246.689 80.7438 246.689C79.1118 246.689 78.0578 247.437 77.4968 248.406C77.5818 245.55 78.6018 243.646 80.5228 243.646Z" fill="#0315B6"/>
</svg>
