<svg width="224" height="126" viewBox="0 0 224 126" fill="none" xmlns="http://www.w3.org/2000/svg">
<path d="M222.276 47.1071C225.585 67.9261 194.839 57.9 177.54 48.9136L180.12 64.8361L199.894 89.0837C199.329 94.7337 200.13 95.8323 200.601 95.6753V117.098L195.657 118.628L194.287 123.925H171.88L170.938 118.628H121.619L120.603 123.925H97.3716L96.4299 118.628L92.3102 117.687V95.6753C93.911 93.4154 93.8404 89.4761 93.605 87.789C84.1884 86.6119 73.2416 92.7327 73.8302 96.9701C74.4187 101.208 81.1223 105.563 77.8256 110.153C64.1755 134.989 -1.50805 123.925 1.67853 105.563C3.95282 92.4574 17.8111 84.378 35.3428 67.6611C50.5265 53.1831 46.3288 39.8822 42.7584 30.9365C49.1616 23.0266 54.2154 21.8338 55.9419 22.2262L66.5359 24.5803C67.9484 21.7553 68.936 16.8597 69.2532 14.765C130.914 -7.98699 182.458 2.36827 207.583 12.1567C211.672 13.7498 215.134 16.6029 217.07 20.5411C219.914 26.3259 223.374 35.9549 222.276 47.1071Z" stroke="#0315B6" stroke-width="2"/>
<path d="M130.597 61.4473V49.1223H129.543C128.88 50.4483 127.945 50.7033 126.194 50.7543V51.8083H129.05V61.4473H130.597ZM137.57 48.9013C135.054 48.9013 133.456 50.2273 133.456 52.0463C133.456 53.0663 133.932 54.2053 135.156 54.8853C133.541 55.5143 133.065 56.8743 133.065 57.9793C133.065 60.3423 135.037 61.6683 137.57 61.6683C140.086 61.6683 142.058 60.3423 142.058 57.9793C142.058 56.8573 141.565 55.5143 139.984 54.8853C141.208 54.2053 141.684 53.0663 141.684 52.0463C141.684 50.2273 140.086 48.9013 137.57 48.9013ZM137.57 55.5313C139.321 55.5313 140.426 56.5343 140.426 57.9793C140.426 59.4243 139.321 60.3763 137.57 60.3763C135.802 60.3763 134.714 59.4243 134.714 57.9793C134.714 56.5343 135.802 55.5313 137.57 55.5313ZM140.12 52.2333C140.12 53.4743 139.117 54.3923 137.57 54.3923C136.023 54.3923 135.003 53.4743 135.003 52.2333C135.003 51.0093 136.006 50.1933 137.57 50.1933C139.117 50.1933 140.12 51.0093 140.12 52.2333Z" fill="#0315B6"/>
</svg>
