<svg width="129" height="125" viewBox="0 0 129 125" fill="none" xmlns="http://www.w3.org/2000/svg">
<path d="M65.6326 29.0007C105.289 23.1055 118.619 64.6013 111.879 81.6094C106.624 93.5897 95.3969 97.154 92.3025 97.6816C62.7349 120.802 42.4204 97.5291 36.6049 83.3729C27.2944 82.4664 24.4504 73.5012 24.1923 69.1319C18.8056 67.3123 21.0804 64.3903 24.2588 64.4304C24.6383 63.2757 24.4441 62.1167 23.9246 60.9578C20.721 53.8109 15.9395 46.9588 19.1465 39.8135C21.035 35.6059 24.0632 31.6805 27.4947 28.7632C30.7855 25.9657 37.5129 28.0092 43.5042 27.6313C41.4427 22.8548 45.0426 22.265 46.9818 24.9458C58.5204 18.5579 64.6912 25.3462 65.6326 29.0007Z" stroke="#0315B6" stroke-width="2"/>
<path d="M52.3521 77.3203V64.9953H51.2981C50.6351 66.3213 49.7001 66.5763 47.9491 66.6273V67.6813H50.8051V77.3203H52.3521ZM61.7389 68.9393C61.7389 70.6223 60.6679 71.8463 59.0529 71.8463C57.4719 71.8463 56.3669 70.6223 56.3669 68.9393C56.3669 67.2563 57.4719 66.0663 59.0699 66.0663C60.7019 66.0663 61.7389 67.2393 61.7389 68.9393ZM58.8999 76.2493C57.6249 76.2493 56.8089 75.5693 56.6049 74.4643H54.9219C55.1939 76.0283 56.3159 77.5413 58.7299 77.5413C62.2659 77.5413 63.5409 74.1923 63.5409 70.7243C63.5409 66.9163 62.1299 64.7743 59.0529 64.7743C56.4179 64.7743 54.7179 66.7293 54.7179 69.0073C54.7179 71.5063 56.4009 73.2063 58.6789 73.2063C60.3109 73.2063 61.3819 72.4583 61.9429 71.4893C61.8579 74.3453 60.8039 76.2493 58.8999 76.2493Z" fill="#0315B6"/>
</svg>
