<svg width="669" height="585" viewBox="0 0 669 585" fill="none" xmlns="http://www.w3.org/2000/svg">
<path d="M244.957 73.6024C242.322 73.6024 240.622 75.2174 240.673 77.6654H242.271C242.322 75.6254 243.597 74.8944 244.923 74.8944C246.402 74.8944 247.235 75.7444 247.235 77.0364C247.235 79.2294 244.685 81.5414 240.333 84.7544V86.1484H249.207V84.7034H242.441C245.892 82.2044 248.867 79.6884 248.867 76.8324C248.867 74.7414 247.235 73.6024 244.957 73.6024Z" fill="#0315B6"/>
<path d="M414.561 307.776L414.421 308.767L415.518 308.921L415.56 307.814L414.561 307.776ZM414.711 318.821L415.709 318.756L415.655 317.919L414.821 317.827L414.711 318.821ZM392.697 316.399L392.806 315.405L391.868 315.301L391.711 316.232L392.697 316.399ZM383.42 371.468L382.434 371.302L382.315 372.009L382.946 372.349L383.42 371.468ZM390.589 375.326L391.469 375.8L391.943 374.92L391.063 374.446L390.589 375.326ZM387.894 380.333L387.761 381.324L388.447 381.416L388.775 380.807L387.894 380.333ZM382.596 379.62L382.729 378.629L381.779 378.502L381.612 379.446L382.596 379.62ZM377.586 407.932L376.601 407.758L376.452 408.597L377.258 408.877L377.586 407.932ZM382.036 417.544L381.093 417.212L380.761 418.154L381.703 418.487L382.036 417.544ZM396.071 437.66L395.079 437.53L394.996 438.161L395.533 438.503L396.071 437.66ZM404.348 449.599L403.786 448.772L403.786 448.772L404.348 449.599ZM389.378 450.096L388.859 450.951L388.97 451.019L389.095 451.055L389.378 450.096ZM326.906 412.199L326.253 412.955L326.316 413.01L326.387 413.054L326.906 412.199ZM331.814 403.079L331.691 404.072L331.691 404.072L331.814 403.079ZM332.85 403.637L332.948 402.642L332.376 404.518L332.85 403.637ZM349.225 412.45L348.751 413.33L349.18 413.561L349.627 413.366L349.225 412.45ZM373.571 415.392L372.986 416.204L374.215 414.627L373.571 415.392ZM365.661 408.731L364.674 408.569L364.582 409.13L365.017 409.496L365.661 408.731ZM370.948 376.557L371.934 376.719L372.033 376.117L371.543 375.754L370.948 376.557ZM370.739 369.494L370.68 370.492L370.929 370.507L371.155 370.403L370.739 369.494ZM354.604 352.986L355.065 352.099L354.878 352.002L354.668 351.988L354.604 352.986ZM317.919 350.619L317.712 351.597L317.783 351.612L317.855 351.617L317.919 350.619ZM312.528 349.638L312.684 348.651L312.684 348.651L312.528 349.638ZM305.095 348.327L305.287 347.345L305.255 347.339L305.222 347.335L305.095 348.327ZM209.309 336.073L209.436 335.081L208.196 334.922L208.314 336.167L209.309 336.073ZM209.916 339.341L208.942 339.565L208.942 339.565L209.916 339.341ZM204.853 375.629L204.651 376.609L205.794 376.844L205.851 375.678L204.853 375.629ZM170.954 372.667L170.005 372.983L170.954 372.667ZM172.966 376.53L173.821 376.011L173.821 376.011L172.966 376.53ZM168.781 389.118L168.937 390.106L169.022 390.093L169.104 390.065L168.781 389.118ZM142.49 393.256L141.95 394.098L142.27 394.303L142.646 394.244L142.49 393.256ZM140.45 382.157L140.162 381.199L140.162 381.199L140.45 382.157ZM158.799 377.864L158.996 378.845L159.402 378.763L159.631 378.418L158.799 377.864ZM144.406 366.868L144.707 365.914L144.707 365.914L144.406 366.868ZM138.725 352.622L139.15 351.717L138.534 351.428L138.039 351.894L138.725 352.622ZM154.283 359.93L153.858 360.835L155.058 361.399L155.27 360.09L154.283 359.93ZM158.745 351.639L158.058 350.913L158.058 350.913L158.745 351.639ZM160.204 350.133L159.469 349.456L159.469 349.456L160.204 350.133ZM169.727 347.207L169.778 346.208L169.727 347.207ZM177.424 347.556L177.383 348.555L177.383 348.555L177.424 347.556ZM184.367 348.57L183.425 348.235L182.922 349.652L184.423 349.568L184.367 348.57ZM187.489 348.396L187.963 347.515L187.715 347.382L187.433 347.397L187.489 348.396ZM188.524 348.705L188.267 349.671L189.373 349.965L189.517 348.83L188.524 348.705ZM189.625 339.99L190.617 340.115L190.622 340.07L190.624 340.025L189.625 339.99ZM189.176 329.931L190.167 329.796L190.167 329.796L189.176 329.931ZM189.026 328.834L188.031 328.737L188.02 328.853L188.035 328.969L189.026 328.834ZM191.763 300.901L192.758 300.998L192.8 300.573L192.521 300.248L191.763 300.901ZM189.748 294.731L190.725 294.947L189.748 294.731ZM190.28 290.584L189.298 290.394L189.282 290.479L189.28 290.566L190.28 290.584ZM197.025 252.78L198.014 252.927L198.159 251.955L197.19 251.793L197.025 252.78ZM216.572 254.233L216.555 253.233L215.702 253.247L215.582 254.092L216.572 254.233ZM211.457 290.187L212.152 290.905L212.399 290.667L212.447 290.328L211.457 290.187ZM211.855 293.088L212.721 292.589L212.721 292.589L211.855 293.088ZM213.629 296.633L214.626 296.703L214.642 296.471L214.555 296.256L213.629 296.633ZM213.168 303.201L212.17 303.131L212.156 303.332L212.221 303.522L213.168 303.201ZM215.393 309.771L214.446 310.091L214.654 310.703L215.296 310.766L215.393 309.771ZM329.542 320.935L329.445 321.931L330.681 322.052L330.536 320.819L329.542 320.935ZM376.987 245.691L377.692 246.4L378.245 245.85L377.846 245.18L376.987 245.691ZM405.423 200.239L405.55 201.231L407 201.045L406.302 199.761L405.423 200.239ZM391.452 174.542L390.876 173.725L390.148 174.238L390.573 175.02L391.452 174.542ZM400.805 170.334L401.08 171.295L401.08 171.295L400.805 170.334ZM401.271 170.204L401.01 169.239L401.01 169.239L401.271 170.204ZM401.273 170.207L401.011 169.241L399.612 169.622L400.464 170.794L401.273 170.207ZM412.964 200.063L412.715 199.094L412.015 199.274L411.966 199.995L412.964 200.063ZM412.855 201.664L411.857 201.597L411.816 202.202L412.333 202.518L412.855 201.664ZM414.766 202.819L415.281 201.961L415.281 201.961L414.766 202.819ZM432.185 245.382L431.247 245.036L432.185 245.382ZM431.739 246.212L432.679 246.554L430.844 245.765L431.739 246.212ZM407.639 263.448L407.611 262.448L406.827 262.47L406.661 263.237L407.639 263.448ZM398.549 305.524L397.572 305.313L397.345 306.364L398.41 306.514L398.549 305.524ZM426.384 260.785C418.325 275.758 414.168 291.796 413.561 307.738L415.56 307.814C416.155 292.17 420.234 276.431 428.145 261.732L426.384 260.785ZM573.826 217.004C520.779 188.455 454.764 208.049 426.384 260.785L428.145 261.732C455.997 209.98 520.794 190.734 572.878 218.765L573.826 217.004ZM618.503 364.177C646.884 311.441 626.873 245.552 573.826 217.004L572.878 218.765C624.963 246.795 644.594 311.476 616.742 363.229L618.503 364.177ZM471.06 407.958C524.108 436.507 590.122 416.913 618.503 364.177L616.742 363.229C588.89 414.982 524.093 434.228 472.008 406.197L471.06 407.958ZM413.714 318.886C416.08 355.105 436.597 389.411 471.06 407.958L472.008 406.197C438.173 387.988 418.032 354.311 415.709 318.756L413.714 318.886ZM414.821 317.827L392.806 315.405L392.588 317.393L414.602 319.815L414.821 317.827ZM391.711 316.232L382.434 371.302L384.406 371.634L393.683 316.565L391.711 316.232ZM382.946 372.349L390.115 376.207L391.063 374.446L383.894 370.588L382.946 372.349ZM389.708 374.852L387.014 379.859L388.775 380.807L391.469 375.8L389.708 374.852ZM388.028 379.342L382.729 378.629L382.463 380.612L387.761 381.324L388.028 379.342ZM381.612 379.446L376.601 407.758L378.57 408.106L383.581 379.795L381.612 379.446ZM377.258 408.877C378.265 409.226 379.688 410.077 380.617 411.445C381.511 412.762 382.002 414.631 381.093 417.212L382.98 417.876C384.097 414.704 383.527 412.171 382.271 410.322C381.05 408.524 379.234 407.445 377.913 406.987L377.258 408.877ZM381.703 418.487C384.233 419.382 387.974 421.433 390.879 424.636C393.764 427.817 395.796 432.094 395.079 437.53L397.062 437.791C397.873 431.646 395.546 426.805 392.36 423.293C389.195 419.803 385.154 417.586 382.37 416.601L381.703 418.487ZM395.533 438.503C397.719 439.899 400.711 442.14 402.642 444.327C403.62 445.435 404.229 446.423 404.411 447.203C404.497 447.572 404.477 447.851 404.397 448.069C404.318 448.283 404.15 448.525 403.786 448.772L404.909 450.427C405.556 449.988 406.026 449.431 406.273 448.761C406.519 448.095 406.512 447.405 406.359 446.748C406.062 445.475 405.182 444.182 404.141 443.003C402.033 440.616 398.866 438.258 396.609 436.818L395.533 438.503ZM403.786 448.772C402.034 449.961 399.385 450.338 396.621 450.243C393.893 450.15 391.246 449.606 389.662 449.137L389.095 451.055C390.816 451.564 393.632 452.143 396.552 452.242C399.436 452.341 402.619 451.981 404.909 450.427L403.786 448.772ZM389.897 449.241L327.425 411.344L326.387 413.054L388.859 450.951L389.897 449.241ZM327.56 411.442C326.502 410.528 325.414 409.427 324.596 408.33C323.749 407.194 323.313 406.222 323.303 405.538C323.298 405.236 323.376 405.011 323.533 404.82C323.702 404.614 324.028 404.372 324.646 404.173C325.911 403.766 328.118 403.631 331.691 404.072L331.936 402.087C328.29 401.637 325.726 401.724 324.033 402.269C323.173 402.546 322.472 402.962 321.989 403.55C321.493 404.152 321.292 404.855 321.303 405.568C321.323 406.914 322.093 408.319 322.993 409.525C323.922 410.771 325.12 411.978 326.253 412.955L327.56 411.442ZM331.691 404.072C335.301 404.517 337.514 404.808 338.719 404.986C339.341 405.077 339.645 405.132 339.739 405.156C339.783 405.166 339.707 405.152 339.608 405.102C339.577 405.087 339.508 405.05 339.43 404.986C339.372 404.938 339.182 404.773 339.103 404.474C338.999 404.082 339.151 403.74 339.338 403.539C339.485 403.383 339.642 403.317 339.692 403.297C339.809 403.251 339.904 403.24 339.911 403.239C339.926 403.237 339.936 403.236 339.942 403.236C339.948 403.235 339.952 403.235 339.952 403.235C339.953 403.235 339.949 403.235 339.937 403.235C339.925 403.235 339.909 403.235 339.889 403.235C339.105 403.222 335.81 402.923 332.948 402.642L332.752 404.632C335.561 404.908 338.967 405.22 339.857 405.235C339.918 405.236 339.984 405.236 340.047 405.233C340.077 405.231 340.12 405.229 340.168 405.223C340.196 405.219 340.307 405.205 340.434 405.154C340.489 405.132 340.65 405.065 340.798 404.906C340.988 404.703 341.141 404.358 341.036 403.963C340.957 403.662 340.765 403.494 340.703 403.443C340.621 403.376 340.546 403.336 340.509 403.317C340.384 403.254 340.257 403.223 340.225 403.215C340.015 403.163 339.605 403.095 339.01 403.007C337.78 402.826 335.546 402.532 331.936 402.087L331.691 404.072ZM332.376 404.518L348.751 413.33L349.699 411.569L333.324 402.757L332.376 404.518ZM349.627 413.366C353.618 411.616 363.963 409.706 372.986 416.204L374.155 414.581C364.376 407.538 353.228 409.603 348.824 411.534L349.627 413.366ZM374.215 414.627L366.305 407.966L365.017 409.496L372.927 416.157L374.215 414.627ZM366.648 408.894L371.934 376.719L369.961 376.395L364.674 408.569L366.648 408.894ZM371.543 375.754C370.714 375.138 369.806 374.381 369.037 373.606C368.248 372.812 367.683 372.076 367.443 371.505C367.325 371.225 367.322 371.069 367.332 371.006C367.336 370.981 367.34 370.936 367.451 370.859C367.591 370.76 367.883 370.63 368.435 370.546C368.978 370.464 369.712 370.436 370.68 370.492L370.797 368.496C369.744 368.434 368.861 368.459 368.135 368.569C367.418 368.678 366.79 368.879 366.302 369.222C365.784 369.585 365.452 370.09 365.357 370.692C365.267 371.256 365.4 371.806 365.599 372.28C365.992 373.215 366.781 374.173 367.617 375.015C368.473 375.877 369.462 376.7 370.352 377.36L371.543 375.754ZM371.155 370.403C372.082 369.978 373.203 369.354 373.783 368.336C374.446 367.172 374.248 365.828 373.27 364.404C372.318 363.018 370.535 361.392 367.657 359.411C364.761 357.417 360.684 355.015 355.065 352.099L354.143 353.874C359.724 356.77 363.721 359.129 366.523 361.058C369.343 362.999 370.881 364.458 371.621 365.536C372.335 366.576 372.2 367.074 372.045 367.346C371.807 367.764 371.228 368.17 370.322 368.585L371.155 370.403ZM354.668 351.988L317.984 349.621L317.855 351.617L354.54 353.984L354.668 351.988ZM318.127 349.641C315.712 349.129 314.34 348.912 312.684 348.651L312.372 350.626C314.016 350.886 315.348 351.096 317.712 351.597L318.127 349.641ZM312.684 348.651C311.002 348.385 309.014 348.071 305.287 347.345L304.904 349.308C308.664 350.041 310.677 350.359 312.372 350.626L312.684 348.651ZM305.222 347.335L209.436 335.081L209.182 337.064L304.969 349.318L305.222 347.335ZM208.314 336.167C208.422 337.316 208.703 338.53 208.942 339.565L210.891 339.116C210.646 338.054 210.399 336.972 210.305 335.978L208.314 336.167ZM208.942 339.565C209.216 340.757 209.405 341.614 209.386 342.134C209.377 342.403 209.316 342.301 209.467 342.168C209.663 341.996 209.81 342.105 209.555 342.04L209.063 343.979C209.579 344.11 210.253 344.14 210.787 343.67C211.278 343.239 211.371 342.619 211.385 342.204C211.415 341.355 211.136 340.182 210.891 339.116L208.942 339.565ZM209.555 342.04C208.957 341.888 208.477 342.168 208.195 342.444C207.929 342.703 207.734 343.046 207.583 343.373C207.275 344.043 207.005 344.987 206.761 346.085C206.268 348.302 205.828 351.399 205.445 354.826C204.678 361.692 204.127 370.013 203.854 375.58L205.851 375.678C206.123 370.133 206.672 361.857 207.432 355.048C207.813 351.638 208.244 348.628 208.713 346.519C208.95 345.454 209.184 344.68 209.4 344.208C209.452 344.095 209.498 344.012 209.535 343.953C209.574 343.892 209.594 343.872 209.591 343.875C209.582 343.885 209.379 344.059 209.063 343.979L209.555 342.04ZM205.054 374.65C199.963 373.602 191.109 371.812 183.695 370.807C180.001 370.306 176.603 369.991 174.196 370.076C173.017 370.117 171.945 370.257 171.184 370.598C170.796 370.772 170.382 371.046 170.126 371.492C169.848 371.976 169.846 372.506 170.005 372.983L171.902 372.35C171.888 372.306 171.919 372.386 171.861 372.487C171.825 372.55 171.817 372.506 172.003 372.423C172.388 372.25 173.128 372.115 174.266 372.075C176.492 371.996 179.746 372.29 183.427 372.789C190.763 373.783 199.555 375.56 204.651 376.609L205.054 374.65ZM170.005 372.983C170.453 374.326 171.314 375.735 172.111 377.049L173.821 376.011C172.988 374.639 172.265 373.436 171.902 372.35L170.005 372.983ZM172.111 377.049C172.788 378.166 173.438 379.24 173.906 380.297C174.373 381.354 174.616 382.302 174.554 383.157C174.442 384.708 173.25 386.538 168.459 388.172L169.104 390.065C174.107 388.358 176.347 386.104 176.549 383.301C176.644 381.98 176.264 380.683 175.735 379.487C175.205 378.291 174.484 377.105 173.821 376.011L172.111 377.049ZM168.626 388.13L142.335 392.268L142.646 394.244L168.937 390.106L168.626 388.13ZM143.031 392.414C142.936 392.354 142.742 392.185 142.465 391.867C142.202 391.563 141.903 391.168 141.596 390.707C140.981 389.781 140.365 388.635 139.946 387.493C139.519 386.329 139.34 385.285 139.469 384.514C139.53 384.146 139.657 383.866 139.837 383.655C140.015 383.446 140.29 383.249 140.738 383.115L140.162 381.199C139.399 381.429 138.775 381.817 138.314 382.358C137.856 382.896 137.605 383.532 137.496 384.185C137.283 385.459 137.595 386.892 138.068 388.182C138.55 389.496 139.245 390.782 139.931 391.814C140.275 392.331 140.624 392.796 140.954 393.177C141.271 393.542 141.614 393.882 141.95 394.098L143.031 392.414ZM140.738 383.115C145.533 381.675 154.895 379.67 158.996 378.845L158.602 376.884C154.509 377.708 145.06 379.729 140.162 381.199L140.738 383.115ZM159.631 378.418C160.246 377.495 160.131 376.373 159.67 375.358C159.206 374.336 158.332 373.258 157.103 372.187C154.635 370.037 150.552 367.758 144.707 365.914L144.106 367.822C149.779 369.611 153.59 371.78 155.789 373.695C156.893 374.657 157.545 375.515 157.849 376.185C158.156 376.861 158.05 377.184 157.966 377.31L159.631 378.418ZM144.707 365.914C141.946 365.044 140.183 363.904 139.09 362.719C138.006 361.544 137.537 360.279 137.43 359.061C137.321 357.827 137.581 356.611 138.004 355.577C138.431 354.531 138.994 353.742 139.41 353.35L138.039 351.894C137.372 352.523 136.663 353.571 136.153 354.82C135.638 356.081 135.295 357.618 135.437 359.236C135.582 360.871 136.22 362.557 137.62 364.075C139.01 365.582 141.108 366.877 144.106 367.822L144.707 365.914ZM138.3 353.528L153.858 360.835L154.708 359.025L139.15 351.717L138.3 353.528ZM155.27 360.09C155.42 359.164 155.919 357.733 156.68 356.25C157.438 354.77 158.406 353.337 159.433 352.365L158.058 350.913C156.808 352.096 155.718 353.742 154.9 355.337C154.085 356.927 153.491 358.565 153.296 359.77L155.27 360.09ZM159.433 352.365C160.033 351.797 160.518 351.269 160.94 350.81L159.469 349.456C159.044 349.917 158.602 350.398 158.058 350.913L159.433 352.365ZM160.94 350.81C161.91 349.757 162.519 349.114 163.601 348.695C164.723 348.261 166.449 348.039 169.675 348.205L169.778 346.208C166.485 346.038 164.409 346.238 162.879 346.83C161.309 347.437 160.417 348.426 159.469 349.456L160.94 350.81ZM169.675 348.205C172.836 348.368 175.372 348.473 177.383 348.555L177.465 346.557C175.455 346.474 172.928 346.37 169.778 346.208L169.675 348.205ZM177.383 348.555C180.236 348.673 181.978 348.745 182.985 348.873C183.23 348.904 183.409 348.936 183.538 348.967C183.674 349 183.71 349.022 183.696 349.014C183.68 349.005 183.534 348.92 183.448 348.708C183.356 348.483 183.403 348.297 183.425 348.235L185.309 348.904C185.395 348.663 185.449 348.318 185.299 347.952C185.155 347.598 184.886 347.388 184.673 347.269C184.287 347.053 183.762 346.956 183.236 346.889C182.121 346.748 180.265 346.672 177.465 346.557L177.383 348.555ZM184.423 349.568L187.545 349.394L187.433 347.397L184.311 347.571L184.423 349.568ZM187.015 349.276C187.189 349.37 187.423 349.439 187.574 349.482C187.764 349.537 188.004 349.601 188.267 349.671L188.782 347.738C188.509 347.666 188.294 347.609 188.131 347.561C188.049 347.538 187.991 347.52 187.953 347.506C187.902 347.489 187.919 347.492 187.963 347.515L187.015 349.276ZM189.517 348.83L190.617 340.115L188.632 339.865L187.532 348.579L189.517 348.83ZM190.624 340.025C190.719 337.341 190.758 335.872 190.694 334.527C190.63 333.177 190.463 331.962 190.167 329.796L188.185 330.067C188.485 332.258 188.638 333.378 188.697 334.622C188.756 335.869 188.721 337.252 188.625 339.955L190.624 340.025ZM190.167 329.796C190.12 329.456 190.071 329.092 190.017 328.7L188.035 328.969C188.089 329.362 188.139 329.727 188.185 330.067L190.167 329.796ZM190.022 328.932L192.758 300.998L190.768 300.803L188.031 328.737L190.022 328.932ZM192.521 300.248C191.198 298.71 190.712 297.834 190.547 297.178C190.388 296.549 190.489 296.018 190.725 294.947L188.772 294.516C188.551 295.517 188.316 296.509 188.607 297.666C188.892 298.797 189.642 299.968 191.005 301.553L192.521 300.248ZM190.725 294.947C190.95 293.926 191.245 292.588 191.28 290.601L189.28 290.566C189.249 292.349 188.989 293.531 188.772 294.516L190.725 294.947ZM191.262 290.774C195.019 271.362 197.032 259.516 198.014 252.927L196.036 252.632C195.06 259.181 193.053 270.996 189.298 290.394L191.262 290.774ZM162.924 242.13C173.833 248.001 185.292 251.837 196.861 253.766L197.19 251.793C185.835 249.9 174.585 246.135 163.871 240.369L162.924 242.13ZM118.247 94.9564C89.8661 147.692 109.876 213.582 162.924 242.13L163.871 240.369C111.787 212.339 92.1562 147.657 120.008 95.9042L118.247 94.9564ZM265.689 51.1752C212.642 22.6269 146.628 42.2206 118.247 94.9564L120.008 95.9042C147.86 44.1512 212.657 24.9061 264.742 52.9364L265.689 51.1752ZM310.366 198.349C338.747 145.613 318.737 79.7236 265.689 51.1752L264.742 52.9364C316.826 80.9668 336.457 145.648 308.605 197.401L310.366 198.349ZM216.589 255.233C254.629 254.596 291.137 234.08 310.366 198.349L308.605 197.401C289.734 232.466 253.905 252.608 216.555 253.233L216.589 255.233ZM215.582 254.092L210.467 290.046L212.447 290.328L217.562 254.374L215.582 254.092ZM210.761 289.468C210.479 289.741 210.24 290.063 210.109 290.456C209.975 290.858 209.983 291.249 210.063 291.61C210.202 292.244 210.61 292.93 210.988 293.587L212.721 292.589C212.51 292.223 212.347 291.938 212.222 291.69C212.096 291.44 212.039 291.284 212.016 291.181C212.006 291.134 212.005 291.109 212.005 291.099C212.006 291.091 212.006 291.089 212.007 291.088C212.007 291.087 212.026 291.028 212.152 290.905L210.761 289.468ZM210.988 293.587C211.475 294.433 212.091 295.504 212.702 297.009L214.555 296.256C213.889 294.617 213.215 293.448 212.721 292.589L210.988 293.587ZM212.631 296.563L212.17 303.131L214.165 303.271L214.626 296.703L212.631 296.563ZM212.221 303.522L214.446 310.091L216.341 309.45L214.115 302.88L212.221 303.522ZM215.296 310.766L329.445 321.931L329.64 319.94L215.491 308.775L215.296 310.766ZM330.536 320.819C330.089 317.026 330.957 312.283 333.034 306.789C335.105 301.31 338.351 295.162 342.571 288.594C351.011 275.457 363.294 260.72 377.692 246.4L376.281 244.982C361.811 259.374 349.426 274.223 340.888 287.513C336.62 294.157 333.299 300.432 331.163 306.082C329.032 311.718 328.05 316.808 328.549 321.052L330.536 320.819ZM377.846 245.18C374.748 239.972 373.521 230.006 377.182 220.808C380.805 211.707 389.235 203.322 405.55 201.231L405.296 199.247C388.291 201.426 379.227 210.263 375.324 220.068C371.46 229.776 372.676 240.401 376.127 246.202L377.846 245.18ZM406.302 199.761L392.33 174.065L390.573 175.02L404.545 200.717L406.302 199.761ZM392.027 175.36C393.189 174.543 396.656 172.562 401.08 171.295L400.53 169.373C395.881 170.703 392.212 172.784 390.876 173.725L392.027 175.36ZM401.08 171.295C401.23 171.252 401.381 171.21 401.533 171.169L401.01 169.239C400.849 169.282 400.689 169.327 400.529 169.373L401.08 171.295ZM401.533 171.169C402.637 170.87 403.319 170.685 403.688 170.585C403.872 170.535 403.977 170.507 404.018 170.496C404.03 170.493 404.031 170.493 404.028 170.494C404.027 170.494 404.024 170.495 404.021 170.495C404.021 170.495 404.009 170.498 403.995 170.501C403.984 170.504 403.94 170.512 403.907 170.517C403.434 170.463 402.801 169.322 403.368 168.614C403.406 168.597 403.457 168.578 403.469 168.574C403.475 168.572 403.485 168.569 403.489 168.568C403.502 168.564 403.513 168.561 403.507 168.563C403.5 168.565 403.479 168.571 403.441 168.581C403.149 168.661 402.046 168.96 401.011 169.241L401.536 171.172C402.57 170.891 403.675 170.59 403.969 170.51C404.004 170.5 404.031 170.493 404.044 170.489C404.046 170.489 404.048 170.488 404.051 170.487C404.051 170.487 404.06 170.485 404.071 170.482C404.074 170.481 404.084 170.477 404.09 170.475C404.103 170.471 404.154 170.452 404.192 170.436C404.759 169.728 404.126 168.586 403.652 168.533C403.62 168.538 403.576 168.546 403.565 168.548C403.55 168.551 403.539 168.554 403.538 168.555C403.534 168.555 403.531 168.556 403.53 168.557C403.521 168.559 403.509 168.562 403.501 168.564C403.457 168.576 403.349 168.605 403.165 168.655C402.796 168.755 402.114 168.939 401.01 169.239L401.533 171.169ZM400.464 170.794C403.227 174.596 407.357 180.344 410.771 185.233C412.479 187.678 414.003 189.902 415.086 191.557C415.628 192.387 416.052 193.062 416.332 193.546C416.473 193.79 416.566 193.966 416.618 194.08C416.645 194.139 416.649 194.156 416.646 194.144C416.644 194.138 416.634 194.105 416.627 194.052C416.622 194.01 416.608 193.885 416.649 193.724L418.587 194.217C418.634 194.033 418.621 193.877 418.611 193.797C418.599 193.707 418.579 193.629 418.562 193.571C418.527 193.456 418.48 193.344 418.436 193.247C418.345 193.048 418.216 192.809 418.063 192.545C417.756 192.013 417.308 191.302 416.759 190.463C415.659 188.781 414.122 186.538 412.411 184.087C408.987 179.185 404.849 173.426 402.082 169.619L400.464 170.794ZM416.649 193.724C416.58 193.996 416.129 195.256 415.37 196.526C414.994 197.153 414.563 197.749 414.093 198.216C413.62 198.687 413.155 198.981 412.715 199.094L413.213 201.031C414.117 200.798 414.883 200.252 415.504 199.634C416.129 199.011 416.658 198.268 417.086 197.553C417.933 196.138 418.465 194.698 418.587 194.217L416.649 193.724ZM411.966 199.995L411.857 201.597L413.853 201.732L413.961 200.13L411.966 199.995ZM412.333 202.518C412.953 202.896 413.596 203.282 414.252 203.676L415.281 201.961C414.624 201.567 413.988 201.185 413.377 200.811L412.333 202.518ZM414.252 203.676C419.835 207.029 426.402 210.992 430.435 217.286C434.413 223.494 436.011 232.13 431.247 245.036L433.124 245.729C438.059 232.357 436.5 223.044 432.119 216.207C427.794 209.456 420.801 205.276 415.281 201.961L414.252 203.676ZM431.247 245.036C428.679 251.994 427.109 256.231 426.264 258.496C425.839 259.633 425.601 260.263 425.51 260.493C425.478 260.574 425.484 260.555 425.504 260.514C425.508 260.506 425.526 260.471 425.554 260.428C425.571 260.402 425.621 260.337 425.655 260.297C425.731 260.222 426.048 260.034 426.305 259.976C426.753 260.04 427.274 260.501 427.364 260.737C427.383 260.837 427.392 260.991 427.39 261.041C427.385 261.118 427.371 261.176 427.37 261.183C427.359 261.23 427.348 261.263 427.356 261.237C427.371 261.188 427.419 261.049 427.503 260.812C428.157 258.962 430.612 252.217 432.679 246.554L430.8 245.869C428.735 251.526 426.276 258.283 425.617 260.146C425.537 260.373 425.477 260.545 425.45 260.631C425.447 260.639 425.429 260.695 425.416 260.753C425.414 260.763 425.4 260.823 425.395 260.901C425.393 260.952 425.401 261.106 425.421 261.207C425.511 261.444 426.032 261.905 426.481 261.968C426.738 261.911 427.055 261.722 427.131 261.647C427.166 261.607 427.216 261.54 427.233 261.515C427.262 261.47 427.281 261.432 427.287 261.421C427.32 261.357 427.355 261.267 427.37 261.228C427.47 260.976 427.716 260.325 428.137 259.195C428.984 256.926 430.555 252.687 433.124 245.729L431.247 245.036ZM430.844 245.765C429.502 248.457 426.7 252.569 422.705 256.04C418.713 259.508 413.599 262.279 407.611 262.448L407.667 264.447C414.261 264.261 419.802 261.212 424.017 257.55C428.228 253.891 431.186 249.563 432.634 246.658L430.844 245.765ZM406.661 263.237L397.572 305.313L399.527 305.735L408.616 263.659L406.661 263.237ZM398.41 306.514L414.421 308.767L414.7 306.786L398.689 304.534L398.41 306.514Z" fill="#0315B6"/>
</svg>
