<svg width="477" height="487" viewBox="0 0 477 487" fill="none" xmlns="http://www.w3.org/2000/svg">
<path d="M419.864 236.854C467.215 252.532 433.578 359.358 390.738 366.997C345.442 379.992 323.837 347.617 306.094 330.934C299.142 324.396 289.696 321.741 280.22 320.609C255.149 317.615 253.422 322.077 232.335 315.182C215.446 309.659 209.88 297.825 216.853 293.437C227.568 286.696 242.752 293.929 254.056 288.23C261.02 284.719 262.503 280.743 261.292 277.038C259.015 270.076 250.693 267.576 243.738 265.278L81.6842 211.721C74.7985 216.974 68.6317 213.45 66.4091 211.032C63.4617 221.617 52.1402 214.051 60.3652 207.957L56.3293 204.616C53.6114 216.667 41.4187 208.025 51.2177 201.665L46.854 198.508C44.1266 209.008 33.3367 202.864 41.6502 195.393L37.9317 193.384C36.4912 205.943 24.2495 196.977 34.2132 191.375L28.241 188.044C27.3091 199.356 15.4517 191.631 23.6832 185.694L19.6874 183.576C17.5861 194.035 5.66291 185.635 15.3954 180.163C12.9102 177.418 12.0973 176.391 10.5595 171.562C6.74488 159.583 26.9557 148.533 33.9728 158.398C39.4217 166.059 39.7809 170.429 49.6996 171.067C83.4576 162.412 89.2137 184.384 87.872 196.451L252.512 244.423C257.303 245.838 263.512 248.443 270.149 250.223C283.699 253.859 300.972 241.931 292.425 230.806C286.166 222.66 273.291 217.962 277.668 209.247C290.827 197.383 304.373 208.098 320.247 219.146C334.084 228.776 351.347 229.403 368.171 228.332C395.819 226.57 413.704 232.978 419.864 236.854Z" stroke="#0315B6" stroke-width="2"/>
<path d="M371.316 329.752C368.681 329.752 366.981 331.367 367.032 333.815H368.63C368.681 331.775 369.956 331.044 371.282 331.044C372.761 331.044 373.594 331.894 373.594 333.186C373.594 335.379 371.044 337.691 366.692 340.904V342.298H375.566V340.853H368.8C372.251 338.354 375.226 335.838 375.226 332.982C375.226 330.891 373.594 329.752 371.316 329.752ZM384.964 336.127C384.964 339.578 383.774 341.227 381.819 341.227C379.864 341.227 378.674 339.578 378.674 336.127C378.674 332.71 379.864 331.044 381.819 331.044C383.74 331.044 384.964 332.71 384.964 336.127ZM386.613 336.127C386.613 332.234 385.1 329.752 381.819 329.752C378.538 329.752 377.025 332.234 377.025 336.127C377.025 340.02 378.538 342.519 381.819 342.519C385.1 342.519 386.613 340.02 386.613 336.127Z" fill="#0315B6"/>
</svg>
