<svg width="280" height="358" viewBox="0 0 280 358" fill="none" xmlns="http://www.w3.org/2000/svg">
<path d="M167.765 220.262C205.843 188.965 184.014 159.689 168.339 148.964L210.172 70.9977L216.461 74.6883L215.228 76.7902C224.528 84.8126 231.701 70.7117 220.26 68.2143L218.78 70.7367L212.491 67.0461L217.377 58.7177L222.506 61.7267L221.794 62.939C232.102 72.4398 238.534 58.5322 225.941 55.8715L224.54 58.2598L219.412 55.2507L220.996 52.5503C222.08 53.1863 224.219 50.5386 225.153 49.1353C230.912 52.5146 233.226 44.8092 228.625 43.2181C231.898 41.236 229.066 38.1235 227.768 38.079C232.273 31.6008 222.155 26.2506 219.44 33.1925C217.517 30.334 214.272 32.8877 214.738 35.0701C208.421 31.9047 206.822 38.3798 212.074 41.4611C210.338 43.6383 209.686 44.749 210.759 46.5434L205.994 54.6641L200.157 51.2394L201.303 49.286C190.58 41.0838 187.116 53.8586 197.001 56.6193L198.148 54.6637L201.937 56.8869L196.056 66.909L190.923 63.897L192.429 61.3304C181.877 53.2528 176.35 65.4758 187.409 69.8858L188.915 67.3192L194.048 70.3312L150.819 138.684C146.162 135.327 132.565 130.536 115.434 138.228C94.0187 147.843 96.5425 175.178 88.2897 178.328C78.5617 182.041 84.7261 185.557 89.7269 186.239C100.58 197.87 64.6763 233.971 58.5965 226.132C52.5167 218.293 49.6107 221.845 50.2592 223.54C50.9077 225.235 57.5925 227.843 51.825 229.552C21.4764 245.657 17.0753 272.254 18.6683 283.54C19.5307 310.071 46.298 324.854 60.3033 328.8C64.0124 330.32 67.8201 332.89 87.8502 338.235C107.88 343.581 137.77 314.65 137.428 297.033C137.154 282.939 141.429 279.396 144.261 279.797C147.049 279.535 148.957 276.097 146.019 275.95C131.683 273.782 129.703 250.275 143.41 235.316C153.24 224.587 157.913 228.57 161.215 230.941C161.865 231.408 162.727 231.365 163.371 230.89L163.844 230.541C164.678 229.927 164.871 228.784 164.497 227.817C162.854 223.583 165.948 221.356 167.765 220.262Z" stroke="#0315B6" stroke-width="2"/>
<path d="M91.1145 285.917C88.4795 285.917 86.7795 287.532 86.8305 289.98H88.4285C88.4795 287.94 89.7545 287.209 91.0805 287.209C92.5595 287.209 93.3925 288.059 93.3925 289.351C93.3925 291.544 90.8425 293.856 86.4905 297.069V298.463H95.3645V297.018H88.5985C92.0495 294.519 95.0245 292.003 95.0245 289.147C95.0245 287.056 93.3925 285.917 91.1145 285.917ZM100.615 298.463V286.138H99.5608C98.8978 287.464 97.9628 287.719 96.2118 287.77V288.824H99.0678V298.463H100.615Z" fill="#0315B6"/>
</svg>
