<svg width="200" height="177" viewBox="0 0 200 177" fill="none" xmlns="http://www.w3.org/2000/svg">
<path d="M191.971 99.2825L57.3116 174.647C55.2036 175.468 53.5405 172.423 52.791 171.051L52.7538 170.983L18.236 109.307L16.6019 109.276L5.9079 90.1679C3.35175 85.9863 1.15666 81.6776 2.40001 80.6408L136.499 5.59018C144.54 1.08958 144.918 1.76413 145.565 2.92018L169.334 47.1806C173.797 45.8646 179.996 58.5245 176.201 60.2941L192.786 89.9286C195.916 95.2885 194.027 98.112 191.971 99.2825Z" stroke="#0315B6" stroke-width="2"/>
<path d="M120.954 75.036C118.319 75.036 116.619 76.651 116.67 79.099H118.268C118.319 77.059 119.594 76.328 120.92 76.328C122.399 76.328 123.232 77.178 123.232 78.47C123.232 80.663 120.682 82.975 116.33 86.188V87.582H125.204V86.137H118.438C121.889 83.638 124.864 81.122 124.864 78.266C124.864 76.175 123.232 75.036 120.954 75.036ZM130.981 75.036C128.346 75.036 126.646 76.651 126.697 79.099H128.295C128.346 77.059 129.621 76.328 130.947 76.328C132.426 76.328 133.259 77.178 133.259 78.47C133.259 80.663 130.709 82.975 126.357 86.188V87.582H135.231V86.137H128.465C131.916 83.638 134.891 81.122 134.891 78.266C134.891 76.175 133.259 75.036 130.981 75.036Z" fill="#0315B6"/>
</svg>
