<svg width="138" height="172" viewBox="0 0 138 172" fill="none" xmlns="http://www.w3.org/2000/svg">
<path d="M100.437 44.0839C104.771 60.8768 96.6746 72.2977 92.0849 75.9091C143.739 117.901 141.665 139.153 129.102 146.556C129.102 175.955 83.2656 172.5 80.574 155.81L66.3543 157.39C56.139 180.793 8.45153 169.39 18.2782 146.556C-16.3494 154.14 9.33124 97.9323 32.2715 73.8777C18.3678 61.7796 21.7393 44.6858 25.727 36.6355C-6.55006 4.58469 40.1719 -11.8921 44.9121 16.773C60.2604 5.93895 79.4455 14.8169 87.1196 20.6101C113.302 -4.66943 134.519 36.6355 100.437 44.0839Z" stroke="#0315B6" stroke-width="2"/>
<path d="M51.5547 68.306C49.8037 68.306 48.9367 67.252 48.7497 65.739H47.1517C47.3387 67.796 48.6137 69.598 51.5377 69.598C53.9007 69.598 55.9917 68.391 55.9917 65.909C55.9917 64.6 55.4817 63.41 53.6457 62.815C54.9377 62.288 55.6517 61.234 55.6517 59.959C55.6517 57.698 53.7817 56.831 51.6567 56.831C49.0727 56.831 47.5257 58.344 47.3387 60.52H48.9367C49.0727 59.109 49.9737 58.123 51.6227 58.123C52.9317 58.123 54.0197 58.82 54.0197 60.129C54.0197 61.574 52.8977 62.169 50.7387 62.169H50.5347V63.58H50.7897C52.7617 63.58 54.3427 64.158 54.3427 65.926C54.3427 67.473 53.1867 68.306 51.5547 68.306Z" fill="#0315B6"/>
</svg>
