<svg width="154" height="142" viewBox="0 0 154 142" fill="none" xmlns="http://www.w3.org/2000/svg">
<path d="M3.28924 60.0134L42.67 1.42383L47.569 3.54098H60.2561C70.8409 -0.228909 73.9703 6.56173 74.212 10.4283V19.128C78.1269 18.5481 81.8847 20.2155 83.2742 21.1217V25.8341C80.3743 23.0792 76.9911 25.4112 75.662 26.9216L77.1119 34.8963C77.8369 37.7963 80.4347 38.1587 81.643 37.9775L140.729 25.8341C144.644 24.9641 147.072 27.7674 147.797 29.2778L152.147 72.7765C152.437 76.4014 149.368 78.6368 147.797 79.3013L98.3176 90.5385L86.8991 117.182C85.8842 121.821 81.8847 122.136 80.0118 121.713L72.5808 135.487C58.6612 144.767 36.5735 138.025 27.2696 133.494L7.37162 74.4206C-0.120162 71.5392 1.52846 63.6152 3.28924 60.0134Z" stroke="#0315B6" stroke-width="2"/>
<path d="M47.2449 54.0031V59.6981H42.8419L47.2449 54.0031ZM51.0699 59.6981H48.8089V51.8781H47.2279L41.1249 59.6981V61.1601H47.2449V64.2031H48.8089V61.1601H51.0699V59.6981Z" fill="#0315B6"/>
</svg>
