<svg width="500" height="634" viewBox="0 0 500 634" fill="none" xmlns="http://www.w3.org/2000/svg">
<path d="M352.269 59.4292L335.721 71.2692L328.351 89.9668L306.021 102.768L284.007 103.812C280.567 112.538 273.025 131.672 270.371 138.403C267.718 145.135 258.67 137.032 254.478 132.139L251.1 165.372L228.15 166.047C221.606 163.468 208.143 158.161 206.647 157.571C205.151 156.982 208.626 179.955 210.55 191.515L193.749 190.293L193.121 213.809C185.641 210.861 169.935 204.67 166.943 203.49C163.952 202.311 169.318 230.35 172.375 244.517C163.808 247.982 146.675 254.91 146.675 254.91L153.58 292.197L121.793 279.667L140.313 325.854L100.787 332.957L103.557 364.294L90.4683 359.134L84.2034 375.027L59.8959 365.446L68.2752 398.994L76.655 432.541C62.2241 432.614 33.5096 432.385 34.0992 430.889C34.6889 429.393 43.3707 443.905 47.6379 451.348L66.3364 458.719L47.351 468.518L89.6742 498.163L123.222 489.783L152.995 510.161L115.851 508.482L98.5925 527.602L97.4252 555.227L155.478 558.667L200.606 589.418L195.939 551.932L212.767 558.566L177.302 519.743L191.469 516.686L201.897 512.155L231.67 532.532L251.412 561.917L255.834 550.699L287.873 576.29L295.244 557.592L322.356 568.279L297.292 519.513L315.512 506.172L299.196 490.019L336.736 496.175L303.114 452.677L336.627 474.529L322.782 430.185L345.731 429.51L360.95 412.825L322.277 404.062L356.419 402.398L332.596 377.885L351.158 358.198L336.541 345.955L373.002 360.327L346.491 320.712L367.742 316.127L353.125 303.884L380.21 309.16C364.466 307.995 338.409 301.756 360.127 286.121C381.844 270.486 378.338 270.976 373.871 273.176L357.387 270.564L360.376 255.974L366.139 248.362L358.191 240.493L368.617 226.055L350.597 221.714L355.512 216.252L344.12 208.111L361.335 201.479L354.504 198.787L373.437 194.805L365.913 189.866L378.819 181.152L366.523 176.305L366.352 168.729L335.599 167.656L362.431 161.658L378.031 159.125L368.125 155.221L374.565 147.893L344.216 145.796L363.638 130.563L355.467 122.259L361.003 108.213L353.273 99.7909L355.78 86.4227L360.358 74.8094L356.551 63.4428L352.269 59.4292Z" stroke="#0315B6" stroke-width="2"/>
<path d="M167.167 460.021C165.45 460.021 164.634 459.086 164.379 457.522H162.781C163.002 459.511 164.328 461.313 167.167 461.313C169.462 461.313 171.553 459.851 171.553 457.029C171.553 454.309 169.666 452.779 167.507 452.779C166.487 452.779 165.518 453.085 164.855 453.714L165.28 450.212H171.094V448.767H164.022L163.223 455.397L164.77 455.482C165.042 454.87 165.875 454.122 167.15 454.122C168.493 454.122 169.921 455.006 169.921 457.046C169.921 458.95 168.646 460.021 167.167 460.021Z" fill="#0315B6"/>
</svg>
