<svg width="228" height="192" viewBox="0 0 228 192" fill="none" xmlns="http://www.w3.org/2000/svg">
<path d="M144.119 190.068H96.7338C93.5581 190.718 89.8404 187.348 88.3786 185.581H38.6049C38.6049 189.925 29.1242 189.767 29.1242 185.581H21.3026C15.3297 186.719 12.7305 182.263 12.1775 179.893L13.2441 148.607L21.3026 138.889C-19.7488 129.408 12.6163 121.237 33.9302 118.336L23.2651 14.9832L24.6225 8.5842C24.4673 2.68941 28.4362 1.24418 30.44 1.25842H212.723C219.037 0.732294 220.761 3.96212 220.835 5.6428C218.131 43.4581 212.723 119.483 212.723 121.062C212.723 122.64 211.92 123.984 211.518 124.459L225.877 148.025V170.934C229.209 185.402 217.181 186.869 210.75 185.794C210.75 190.635 201.037 190.068 201.037 185.794L151.233 184.608C149.968 187.454 145.963 189.434 144.119 190.068Z" stroke="#0315B6" stroke-width="2"/>
<path d="M116.605 108.476C116.605 106.793 117.693 105.552 119.308 105.552C120.889 105.552 121.994 106.793 121.994 108.476C121.994 110.159 120.855 111.349 119.291 111.349C117.659 111.349 116.605 110.176 116.605 108.476ZM119.444 101.166C120.719 101.166 121.552 101.846 121.756 102.951H123.439C123.167 101.387 122.045 99.8739 119.631 99.8739C116.044 99.8739 114.82 103.223 114.82 106.691C114.82 110.499 116.231 112.641 119.308 112.641C121.943 112.641 123.643 110.686 123.643 108.391C123.643 105.926 121.96 104.209 119.665 104.209C118.033 104.209 116.979 104.957 116.418 105.926C116.503 103.07 117.523 101.166 119.444 101.166Z" fill="#0315B6"/>
</svg>
