<svg width="161" height="99" viewBox="0 0 161 99" fill="none" xmlns="http://www.w3.org/2000/svg">
<path d="M8.59754 25.6049C9.11652 17.8188 12.9085 14.1435 17.2117 12.6655C23.6878 10.4412 30.0702 15.0004 34.9276 19.8266C37.0735 15.6881 39.5898 14.1426 40.5797 13.8871C40.1326 11.7795 39.9666 7.14288 42.8789 5.45682C55.1696 -0.98087 61.9195 5.85146 63.7582 10.0723C66.7781 6.96616 70.9078 4.7323 74.6921 3.23156C79.8084 1.20259 85.6376 1.10604 90.5244 3.63811C99.5862 8.33333 101.662 16.3101 101.395 20.4273L103.386 22.4187C112.785 26.2421 130.402 41.8012 138.036 49.1028C151.417 53.2448 155.958 61.5819 156.555 65.2327C167.229 81.0042 144.275 84.2833 131.464 83.9514C129.871 91.7177 121.109 91.9168 95.6198 96.6961C75.2284 100.519 53.6687 93.7754 45.4378 89.9255C42.0525 86.673 33.9676 80.1679 28.7104 80.1679C8.47829 79.8492 2.35818 72.3352 1.82715 68.618C3.73884 67.8215 7.13728 39.6107 8.59754 25.6049Z" stroke="#0315B6" stroke-width="2"/>
<path d="M43.0229 46.7079H49.7549C46.6779 49.3769 44.7399 53.1509 44.4679 57.5879H46.3379C46.6269 52.9639 48.4969 49.1729 51.5569 46.7079V45.2629H43.0229V46.7079Z" fill="#0315B6"/>
</svg>
