<svg width="407" height="348" viewBox="0 0 407 348" fill="none" xmlns="http://www.w3.org/2000/svg">
<path d="M182.755 182.057C179.918 188.484 177.855 193.906 176.591 197.772C175.102 211.963 181.158 236.561 217.29 221.416L238.506 233.742C234.751 243.528 236.687 260.598 274.472 250.582L290.924 260.14C290.814 272.624 297.375 296.086 324.497 290.069C351.62 284.052 375.117 237.824 383.476 215.462C384.426 195.552 378.303 160.57 346.216 179.917L325.656 171.447C325.278 154.82 316.696 126.863 285.39 148.055L266.34 136.987C262.558 118.576 248.571 89.0235 222.874 118.106C218.11 123.496 213.685 129.13 209.606 134.822M182.755 182.057C169.053 183.215 144.997 168.676 134.681 161.262C134.701 154.703 136.321 148.206 138.887 142.051M182.755 182.057C188.549 168.932 197.57 151.618 209.606 134.822M209.606 134.822C204.666 127.092 189.254 110.387 167.129 105.41C163.082 108.635 157.515 113.917 152.134 120.528M138.887 142.051L115.193 167.893C113.266 165.229 111.994 156.653 122.322 143.659L111.077 144.075L114.096 138.88C106.569 140.146 88.5448 148.883 76.663 173.703C64.7813 198.524 73.7431 172.36 79.7091 156.175C81.6704 150.827 88.1194 138.695 98.2251 132.949C88.4157 133.908 59.3878 144.739 21.7519 180.4C21.5607 171.476 28.2882 149.037 56.7274 130.663C85.1667 112.289 69.113 122.085 57.5312 129.279C48.5917 126.465 28.0476 124.787 17.3872 140.589C21.0015 128.149 37.3435 103.963 73.7972 106.742C73.6706 103.32 70.8462 95.9862 60.5623 94.03C50.2784 92.0738 66.3319 90.7728 75.6441 90.3669C68.1914 81.8074 59.587 56.6644 84.7903 24.5675C79.9138 36.4505 75.3964 63.9455 96.3391 78.8617C94.4881 68.0931 94.6944 44.0151 110.327 33.8517C104.714 41.6938 97.1832 63.1203 111.967 86.0901C114.092 69.0839 124.716 34.3856 150.208 31.6419C140.538 41.0044 121.086 67.3842 120.641 98.0031C122.46 90.7765 127.538 75.5739 133.299 72.576C130.62 77.188 126.692 89.4107 132.413 101.405C132.585 95.9532 134.311 84.2141 139.847 80.874C137.86 86.5208 135.087 100.935 139.892 113.416C142.823 105.074 151.296 88.2655 161.738 87.7756C157.372 93.1703 148.42 107.162 147.535 119.971C149.517 114.161 154.221 102.707 157.18 103.369L152.134 120.528M138.887 142.051C142.199 134.107 147.084 126.732 152.134 120.528" stroke="#0315B6" stroke-width="2"/>
<path d="M299.967 191.604C297.451 191.604 295.853 192.93 295.853 194.749C295.853 195.769 296.329 196.908 297.553 197.588C295.938 198.217 295.462 199.577 295.462 200.682C295.462 203.045 297.434 204.371 299.967 204.371C302.483 204.371 304.455 203.045 304.455 200.682C304.455 199.56 303.962 198.217 302.381 197.588C303.605 196.908 304.081 195.769 304.081 194.749C304.081 192.93 302.483 191.604 299.967 191.604ZM299.967 198.234C301.718 198.234 302.823 199.237 302.823 200.682C302.823 202.127 301.718 203.079 299.967 203.079C298.199 203.079 297.111 202.127 297.111 200.682C297.111 199.237 298.199 198.234 299.967 198.234ZM302.517 194.936C302.517 196.177 301.514 197.095 299.967 197.095C298.42 197.095 297.4 196.177 297.4 194.936C297.4 193.712 298.403 192.896 299.967 192.896C301.514 192.896 302.517 193.712 302.517 194.936Z" fill="#0315B6"/>
</svg>
