<svg width="228" height="265" viewBox="0 0 228 265" fill="none" xmlns="http://www.w3.org/2000/svg">
<path d="M142.268 219.901C151.654 227.212 152.86 232.444 151.815 234.572L144.756 255.112C107.39 259.03 77.1485 234.58 66.6983 221.866C66.8096 218.112 68.7529 208.661 75.6354 200.883C82.518 193.105 112.817 203.994 127.107 210.411C128.066 210.915 128.99 211.413 129.881 211.906M142.268 219.901L173.963 140.854C175.679 130.644 174.852 103.772 157.813 77.9574C159.599 76.6616 162.649 72.8608 160.563 68.024C186.472 55.8629 172.438 19.284 141.353 36.646L113.755 52.7751C100.898 49.3558 73.0446 45.1096 64.4822 55.4794C69.6837 75.1335 86.0979 117.594 110.143 130.204C116.502 125.509 129.995 110.478 133.092 87.9094L139.579 82.5287C140.276 83.4016 142.673 85.2287 146.681 85.5536C154.223 98.5544 167.578 127.571 160.665 139.63L129.881 211.906M142.268 219.901C139.128 217.456 135.074 214.778 129.881 211.906" stroke="#0315B6" stroke-width="2"/>
<path d="M112.795 226.295C112.795 227.978 111.724 229.202 110.109 229.202C108.528 229.202 107.423 227.978 107.423 226.295C107.423 224.612 108.528 223.422 110.126 223.422C111.758 223.422 112.795 224.595 112.795 226.295ZM109.956 233.605C108.681 233.605 107.865 232.925 107.661 231.82H105.978C106.25 233.384 107.372 234.897 109.786 234.897C113.322 234.897 114.597 231.548 114.597 228.08C114.597 224.272 113.186 222.13 110.109 222.13C107.474 222.13 105.774 224.085 105.774 226.363C105.774 228.862 107.457 230.562 109.735 230.562C111.367 230.562 112.438 229.814 112.999 228.845C112.914 231.701 111.86 233.605 109.956 233.605Z" fill="#0315B6"/>
</svg>
