<svg width="253" height="124" viewBox="0 0 253 124" fill="none" xmlns="http://www.w3.org/2000/svg">
<rect x="21.6406" y="8.58496" width="2.89254" height="101.037" fill="#0315B6"/>
<rect x="26.2686" y="8.58496" width="2.89254" height="101.037" fill="#0315B6"/>
<rect x="31.0986" y="8.58496" width="4.42117" height="85.7846" fill="#0315B6"/>
<rect x="37.7041" y="8.58496" width="6.6027" height="85.7846" fill="#0315B6"/>
<rect x="48.5127" y="8.58496" width="4.80093" height="85.7846" fill="#0315B6"/>
<rect x="55.0479" y="8.58496" width="4.80093" height="85.7846" fill="#0315B6"/>
<rect x="66.415" y="8.58496" width="4.09292" height="85.7846" fill="#0315B6"/>
<rect x="72.6924" y="8.58496" width="2.57028" height="85.7846" fill="#0315B6"/>
<rect x="81.8281" y="8.58496" width="4.35288" height="85.7846" fill="#0315B6"/>
<rect x="87.916" y="8.58496" width="2.95304" height="85.7846" fill="#0315B6"/>
<rect x="95.0752" y="8.58496" width="4.43195" height="85.7846" fill="#0315B6"/>
<rect x="101.691" y="8.58496" width="4.43195" height="85.7846" fill="#0315B6"/>
<rect x="110.143" y="8.58496" width="7.30233" height="85.7846" fill="#0315B6"/>
<rect x="147.401" y="8.58496" width="7.30233" height="85.7846" fill="#0315B6"/>
<rect x="163.414" y="8.58496" width="7.30233" height="85.7846" fill="#0315B6"/>
<rect x="178.714" y="8.58496" width="7.30233" height="85.7846" fill="#0315B6"/>
<rect x="194" y="8.58496" width="4.57272" height="85.7846" fill="#0315B6"/>
<rect x="203.205" y="8.58496" width="4.57272" height="85.7846" fill="#0315B6"/>
<rect x="119.18" y="8.58496" width="2.4379" height="85.7846" fill="#0315B6"/>
<rect x="132.148" y="8.58496" width="2.4379" height="85.7846" fill="#0315B6"/>
<rect x="140.944" y="8.58496" width="2.4379" height="85.7846" fill="#0315B6"/>
<rect x="158.836" y="8.58496" width="2.4379" height="85.7846" fill="#0315B6"/>
<rect x="174.123" y="8.58496" width="2.4379" height="85.7846" fill="#0315B6"/>
<rect x="189.422" y="8.58496" width="2.4379" height="85.7846" fill="#0315B6"/>
<rect x="209.513" y="8.58496" width="2.4379" height="85.7846" fill="#0315B6"/>
<rect x="213.685" y="8.58496" width="2.4379" height="85.7846" fill="#0315B6"/>
<rect x="224.836" y="8.58496" width="2.4379" height="100.927" fill="#0315B6"/>
<rect x="229.754" y="8.58496" width="2.4379" height="100.927" fill="#0315B6"/>
<rect x="123.353" y="8.58496" width="2.4379" height="100.288" fill="#0315B6"/>
<rect x="127.976" y="8.58496" width="2.4379" height="100.288" fill="#0315B6"/>
<path d="M17.4695 104.618V110.313H13.0665L17.4695 104.618ZM21.2945 110.313H19.0335V102.493H17.4525L11.3495 110.313V111.775H17.4695V114.818H19.0335V111.775H21.2945V110.313Z" fill="#0315B6"/>
<path d="M39.362 101.705C36.846 101.705 35.248 103.031 35.248 104.85C35.248 105.87 35.724 107.009 36.948 107.689C35.333 108.318 34.857 109.678 34.857 110.783C34.857 113.146 36.829 114.472 39.362 114.472C41.878 114.472 43.85 113.146 43.85 110.783C43.85 109.661 43.357 108.318 41.776 107.689C43 107.009 43.476 105.87 43.476 104.85C43.476 103.031 41.878 101.705 39.362 101.705ZM39.362 108.335C41.113 108.335 42.218 109.338 42.218 110.783C42.218 112.228 41.113 113.18 39.362 113.18C37.594 113.18 36.506 112.228 36.506 110.783C36.506 109.338 37.594 108.335 39.362 108.335ZM41.912 105.037C41.912 106.278 40.909 107.196 39.362 107.196C37.815 107.196 36.795 106.278 36.795 105.037C36.795 103.813 37.798 102.997 39.362 102.997C40.909 102.997 41.912 103.813 41.912 105.037Z" fill="#0315B6"/>
<path d="M52.6075 113.18C50.8565 113.18 49.9895 112.126 49.8025 110.613H48.2045C48.3915 112.67 49.6665 114.472 52.5905 114.472C54.9535 114.472 57.0445 113.265 57.0445 110.783C57.0445 109.474 56.5345 108.284 54.6985 107.689C55.9905 107.162 56.7045 106.108 56.7045 104.833C56.7045 102.572 54.8345 101.705 52.7095 101.705C50.1255 101.705 48.5785 103.218 48.3915 105.394H49.9895C50.1255 103.983 51.0265 102.997 52.6755 102.997C53.9845 102.997 55.0725 103.694 55.0725 105.003C55.0725 106.448 53.9505 107.043 51.7915 107.043H51.5875V108.454H51.8425C53.8145 108.454 55.3955 109.032 55.3955 110.8C55.3955 112.347 54.2395 113.18 52.6075 113.18Z" fill="#0315B6"/>
<path d="M69.4274 105.87C69.4274 107.553 68.3564 108.777 66.7414 108.777C65.1604 108.777 64.0554 107.553 64.0554 105.87C64.0554 104.187 65.1604 102.997 66.7584 102.997C68.3904 102.997 69.4274 104.17 69.4274 105.87ZM66.5884 113.18C65.3134 113.18 64.4974 112.5 64.2934 111.395H62.6104C62.8824 112.959 64.0044 114.472 66.4184 114.472C69.9544 114.472 71.2294 111.123 71.2294 107.655C71.2294 103.847 69.8184 101.705 66.7414 101.705C64.1064 101.705 62.4064 103.66 62.4064 105.938C62.4064 108.437 64.0894 110.137 66.3674 110.137C67.9994 110.137 69.0704 109.389 69.6314 108.42C69.5464 111.276 68.4924 113.18 66.5884 113.18Z" fill="#0315B6"/>
<path d="M84.2198 108.08C84.2198 111.531 83.0298 113.18 81.0748 113.18C79.1198 113.18 77.9298 111.531 77.9298 108.08C77.9298 104.663 79.1198 102.997 81.0748 102.997C82.9958 102.997 84.2198 104.663 84.2198 108.08ZM85.8688 108.08C85.8688 104.187 84.3558 101.705 81.0748 101.705C77.7938 101.705 76.2808 104.187 76.2808 108.08C76.2808 111.973 77.7938 114.472 81.0748 114.472C84.3558 114.472 85.8688 111.973 85.8688 108.08Z" fill="#0315B6"/>
<path d="M94.6092 104.051V109.746H90.2062L94.6092 104.051ZM98.4342 109.746H96.1732V101.926H94.5922L88.4892 109.746V111.208H94.6092V114.251H96.1732V111.208H98.4342V109.746Z" fill="#0315B6"/>
<path d="M108.686 114.251V101.926H107.632C106.969 103.252 106.034 103.507 104.283 103.558V104.612H107.139V114.251H108.686Z" fill="#0315B6"/>
<path d="M136.947 103.371H143.679C140.602 106.04 138.664 109.814 138.392 114.251H140.262C140.551 109.627 142.421 105.836 145.481 103.371V101.926H136.947V103.371Z" fill="#0315B6"/>
<path d="M157.23 105.87C157.23 107.553 156.159 108.777 154.544 108.777C152.963 108.777 151.858 107.553 151.858 105.87C151.858 104.187 152.963 102.997 154.561 102.997C156.193 102.997 157.23 104.17 157.23 105.87ZM154.391 113.18C153.116 113.18 152.3 112.5 152.096 111.395H150.413C150.685 112.959 151.807 114.472 154.221 114.472C157.757 114.472 159.032 111.123 159.032 107.655C159.032 103.847 157.621 101.705 154.544 101.705C151.909 101.705 150.209 103.66 150.209 105.938C150.209 108.437 151.892 110.137 154.17 110.137C155.802 110.137 156.873 109.389 157.434 108.42C157.349 111.276 156.295 113.18 154.391 113.18Z" fill="#0315B6"/>
<path d="M169.89 104.051V109.746H165.487L169.89 104.051ZM173.715 109.746H171.454V101.926H169.873L163.77 109.746V111.208H169.89V114.251H171.454V111.208H173.715V109.746Z" fill="#0315B6"/>
<path d="M182.048 113.18C180.297 113.18 179.43 112.126 179.243 110.613H177.645C177.832 112.67 179.107 114.472 182.031 114.472C184.394 114.472 186.485 113.265 186.485 110.783C186.485 109.474 185.975 108.284 184.139 107.689C185.431 107.162 186.145 106.108 186.145 104.833C186.145 102.572 184.275 101.705 182.15 101.705C179.566 101.705 178.019 103.218 177.832 105.394H179.43C179.566 103.983 180.467 102.997 182.116 102.997C183.425 102.997 184.513 103.694 184.513 105.003C184.513 106.448 183.391 107.043 181.232 107.043H181.028V108.454H181.283C183.255 108.454 184.836 109.032 184.836 110.8C184.836 112.347 183.68 113.18 182.048 113.18Z" fill="#0315B6"/>
<path d="M196.347 101.705C193.831 101.705 192.233 103.031 192.233 104.85C192.233 105.87 192.709 107.009 193.933 107.689C192.318 108.318 191.842 109.678 191.842 110.783C191.842 113.146 193.814 114.472 196.347 114.472C198.863 114.472 200.835 113.146 200.835 110.783C200.835 109.661 200.342 108.318 198.761 107.689C199.985 107.009 200.461 105.87 200.461 104.85C200.461 103.031 198.863 101.705 196.347 101.705ZM196.347 108.335C198.098 108.335 199.203 109.338 199.203 110.783C199.203 112.228 198.098 113.18 196.347 113.18C194.579 113.18 193.491 112.228 193.491 110.783C193.491 109.338 194.579 108.335 196.347 108.335ZM198.897 105.037C198.897 106.278 197.894 107.196 196.347 107.196C194.8 107.196 193.78 106.278 193.78 105.037C193.78 103.813 194.783 102.997 196.347 102.997C197.894 102.997 198.897 103.813 198.897 105.037Z" fill="#0315B6"/>
<path d="M211.422 104.051V109.746H207.019L211.422 104.051ZM215.247 109.746H212.986V101.926H211.405L205.302 109.746V111.208H211.422V114.251H212.986V111.208H215.247V109.746Z" fill="#0315B6"/>
<rect x="1" y="1.09766" width="250.566" height="121.596" stroke="#0315B6" stroke-width="2"/>
</svg>
