<svg width="167" height="52" viewBox="0 0 167 52" fill="none" xmlns="http://www.w3.org/2000/svg">
<circle cx="17.4571" cy="2.55166" r="3.10309" transform="rotate(4.14445 17.4571 2.55166)" fill="#0315B6"/>
<circle cx="24.3331" cy="11.9188" r="3.10309" transform="rotate(4.14445 24.3331 11.9188)" fill="#0315B6"/>
<circle cx="31.7232" cy="20.995" r="3.10309" transform="rotate(4.14445 31.7232 20.995)" fill="#0315B6"/>
<circle cx="40.2608" cy="27.8349" r="3.10309" transform="rotate(4.14445 40.2608 27.8349)" fill="#0315B6"/>
<circle cx="49.9425" cy="34.7606" r="3.10309" transform="rotate(4.14445 49.9425 34.7606)" fill="#0315B6"/>
<circle cx="60.5084" cy="38.5419" r="3.10309" transform="rotate(4.14445 60.5084 38.5419)" fill="#0315B6"/>
<circle cx="71.1505" cy="41.2841" r="3.10309" transform="rotate(4.14445 71.1505 41.2841)" fill="#0315B6"/>
<circle cx="81.797" cy="42.8603" r="3.10309" transform="rotate(4.14445 81.797 42.8603)" fill="#0315B6"/>
<circle cx="92.5787" cy="42.5673" r="3.10309" transform="rotate(4.14445 92.5787 42.5673)" fill="#0315B6"/>
<circle cx="103.508" cy="40.247" r="3.10309" transform="rotate(4.14445 103.508 40.247)" fill="#0315B6"/>
<circle cx="113.985" cy="36.1962" r="3.10309" transform="rotate(4.14445 113.985 36.1962)" fill="#0315B6"/>
<circle cx="123.414" cy="30.7489" r="3.10309" transform="rotate(4.14445 123.414 30.7489)" fill="#0315B6"/>
<circle cx="132.848" cy="25.2118" r="3.10309" transform="rotate(4.14445 132.848 25.2118)" fill="#0315B6"/>
<circle cx="139.653" cy="17.163" r="3.10309" transform="rotate(4.14445 139.653 17.163)" fill="#0315B6"/>
<circle cx="146.483" cy="8.78994" r="3.10309" transform="rotate(4.14445 146.483 8.78994)" fill="#0315B6"/>
<circle cx="151.616" cy="-0.749122" r="3.10309" transform="rotate(4.14445 151.616 -0.749122)" fill="#0315B6"/>
</svg>
