<svg width="168" height="168" viewBox="0 0 168 168" fill="none" xmlns="http://www.w3.org/2000/svg">
<circle cx="41.4781" cy="23.5849" r="3.10309" transform="rotate(4.14445 41.4781 23.5849)" fill="#0315B6"/>
<circle cx="31.6007" cy="30.9911" r="3.10309" transform="rotate(4.14445 31.6007 30.9911)" fill="#0315B6"/>
<circle cx="22.4693" cy="40.7079" r="3.10309" transform="rotate(4.14445 22.4693 40.7079)" fill="#0315B6"/>
<circle cx="16.6246" cy="51.3505" r="3.10309" transform="rotate(4.14445 16.6246 51.3505)" fill="#0315B6"/>
<circle cx="12.6915" cy="62.6942" r="3.10309" transform="rotate(4.14445 12.6915 62.6942)" fill="#0315B6"/>
<circle cx="9.81358" cy="75.4657" r="3.10309" transform="rotate(4.14445 9.81358 75.4657)" fill="#0315B6"/>
<circle cx="9.82725" cy="86.3739" r="3.10309" transform="rotate(4.14445 9.82725 86.3739)" fill="#0315B6"/>
<circle cx="11.2267" cy="97.3837" r="3.10309" transform="rotate(4.14445 11.2267 97.3837)" fill="#0315B6"/>
<circle cx="13.5362" cy="108.458" r="3.10309" transform="rotate(4.14445 13.5362 108.458)" fill="#0315B6"/>
<circle cx="17.9371" cy="119.124" r="3.10309" transform="rotate(4.14445 17.9371 119.124)" fill="#0315B6"/>
<circle cx="24.8131" cy="128.491" r="3.10309" transform="rotate(4.14445 24.8131 128.491)" fill="#0315B6"/>
<circle cx="32.2032" cy="137.567" r="3.10309" transform="rotate(4.14445 32.2032 137.567)" fill="#0315B6"/>
<circle cx="40.7408" cy="144.407" r="3.10309" transform="rotate(4.14445 40.7408 144.407)" fill="#0315B6"/>
<circle cx="50.4225" cy="151.333" r="3.10309" transform="rotate(4.14445 50.4225 151.333)" fill="#0315B6"/>
<circle cx="60.9884" cy="155.114" r="3.10309" transform="rotate(4.14445 60.9884 155.114)" fill="#0315B6"/>
<circle cx="71.6305" cy="157.856" r="3.10309" transform="rotate(4.14445 71.6305 157.856)" fill="#0315B6"/>
<circle cx="82.277" cy="159.433" r="3.10309" transform="rotate(4.14445 82.277 159.433)" fill="#0315B6"/>
<circle cx="93.0587" cy="159.14" r="3.10309" transform="rotate(4.14445 93.0587 159.14)" fill="#0315B6"/>
<circle cx="103.988" cy="156.819" r="3.10309" transform="rotate(4.14445 103.988 156.819)" fill="#0315B6"/>
<circle cx="114.465" cy="152.768" r="3.10309" transform="rotate(4.14445 114.465 152.768)" fill="#0315B6"/>
<circle cx="123.894" cy="147.321" r="3.10309" transform="rotate(4.14445 123.894 147.321)" fill="#0315B6"/>
<circle cx="133.328" cy="141.784" r="3.10309" transform="rotate(4.14445 133.328 141.784)" fill="#0315B6"/>
<circle cx="140.133" cy="133.735" r="3.10309" transform="rotate(4.14445 140.133 133.735)" fill="#0315B6"/>
<circle cx="146.963" cy="125.362" r="3.10309" transform="rotate(4.14445 146.963 125.362)" fill="#0315B6"/>
<circle cx="152.096" cy="115.823" r="3.10309" transform="rotate(4.14445 152.096 115.823)" fill="#0315B6"/>
<circle cx="156.004" cy="104.827" r="3.10309" transform="rotate(4.14445 156.004 104.827)" fill="#0315B6"/>
<circle cx="158.079" cy="95.0673" r="3.10309" transform="rotate(4.14445 158.079 95.0673)" fill="#0315B6"/>
<circle cx="158.979" cy="82.6571" r="3.10309" transform="rotate(4.14445 158.979 82.6571)" fill="#0315B6"/>
<circle cx="158.072" cy="70.1181" r="3.10309" transform="rotate(4.14445 158.072 70.1181)" fill="#0315B6"/>
<circle cx="154.812" cy="59.9716" r="3.10309" transform="rotate(4.14445 154.812 59.9716)" fill="#0315B6"/>
<circle cx="150.644" cy="49.997" r="3.10309" transform="rotate(4.14445 150.644 49.997)" fill="#0315B6"/>
<circle cx="145.077" cy="40.9579" r="3.10309" transform="rotate(4.14445 145.077 40.9579)" fill="#0315B6"/>
<circle cx="137.864" cy="32.4677" r="3.10309" transform="rotate(4.14445 137.864 32.4677)" fill="#0315B6"/>
<circle cx="129.897" cy="24.5009" r="3.10309" transform="rotate(4.14445 129.897 24.5009)" fill="#0315B6"/>
<circle cx="119.281" cy="17.581" r="3.10309" transform="rotate(4.14445 119.281 17.581)" fill="#0315B6"/>
<circle cx="51.2857" cy="18.0731" r="3.10309" transform="rotate(4.14445 51.2857 18.0731)" fill="#0315B6"/>
<circle cx="63.9503" cy="12.7665" r="3.10309" transform="rotate(4.14445 63.9503 12.7665)" fill="#0315B6"/>
<circle cx="78.6842" cy="9.21963" r="3.10309" transform="rotate(4.14445 78.6842 9.21963)" fill="#0315B6"/>
<circle cx="93.1437" cy="9.46377" r="3.10309" transform="rotate(4.14445 93.1437 9.46377)" fill="#0315B6"/>
<circle cx="107.584" cy="12.8173" r="3.10309" transform="rotate(4.14445 107.584 12.8173)" fill="#0315B6"/>
</svg>
