<svg width="497" height="620" viewBox="0 0 497 620" fill="none" xmlns="http://www.w3.org/2000/svg">
<path opacity="0.8" d="M49.2614 85.454C46.7454 85.454 45.1474 86.78 45.1474 88.599C45.1474 89.619 45.6234 90.758 46.8474 91.438C45.2324 92.067 44.7564 93.427 44.7564 94.532C44.7564 96.895 46.7284 98.221 49.2614 98.221C51.7774 98.221 53.7494 96.895 53.7494 94.532C53.7494 93.41 53.2564 92.067 51.6754 91.438C52.8994 90.758 53.3754 89.619 53.3754 88.599C53.3754 86.78 51.7774 85.454 49.2614 85.454ZM49.2614 92.084C51.0124 92.084 52.1174 93.087 52.1174 94.532C52.1174 95.977 51.0124 96.929 49.2614 96.929C47.4934 96.929 46.4054 95.977 46.4054 94.532C46.4054 93.087 47.4934 92.084 49.2614 92.084ZM51.8114 88.786C51.8114 90.027 50.8084 90.945 49.2614 90.945C47.7144 90.945 46.6944 90.027 46.6944 88.786C46.6944 87.562 47.6974 86.746 49.2614 86.746C50.8084 86.746 51.8114 87.562 51.8114 88.786Z" fill="#0315B6"/>
<path d="M40.374 83.0664C-3.2366 -4.83652 286.641 -26.9205 289.806 124.45C363.649 88.1185 443.528 61.4264 396.177 188.854C500.631 184.659 552.868 360.068 297.507 316.217C375.2 405.979 462.87 568.745 192.003 501.71C271.517 601.673 64.0844 673.442 19.1244 551.938" stroke="#0315B6" stroke-width="2"/>
</svg>
