<svg width="1117" height="473" viewBox="0 0 1117 473" fill="none" xmlns="http://www.w3.org/2000/svg">
<path d="M134.627 160.135V147.81H133.573C132.91 149.136 131.975 149.391 130.224 149.442V150.496H133.08V160.135H134.627Z" fill="#0315B6"/>
<path d="M5.20529 77.3212C2.57029 77.3212 0.870289 78.9362 0.921289 81.3842H2.51929C2.57029 79.3442 3.84529 78.6132 5.17129 78.6132C6.65029 78.6132 7.48329 79.4632 7.48329 80.7552C7.48329 82.9482 4.93329 85.2602 0.581289 88.4732V89.8672H9.45529V88.4222H2.68929C6.14029 85.9232 9.11529 83.4072 9.11529 80.5512C9.11529 78.4602 7.48329 77.3212 5.20529 77.3212Z" fill="#0315B6"/>
<path d="M14.8126 16.7024C13.0616 16.7024 12.1946 15.6484 12.0076 14.1354H10.4096C10.5966 16.1924 11.8716 17.9944 14.7956 17.9944C17.1586 17.9944 19.2496 16.7874 19.2496 14.3054C19.2496 12.9964 18.7396 11.8064 16.9036 11.2114C18.1956 10.6844 18.9096 9.63044 18.9096 8.35544C18.9096 6.09444 17.0396 5.22744 14.9146 5.22744C12.3306 5.22744 10.7836 6.74044 10.5966 8.91644H12.1946C12.3306 7.50544 13.2316 6.51944 14.8806 6.51944C16.1896 6.51944 17.2776 7.21644 17.2776 8.52544C17.2776 9.97044 16.1556 10.5654 13.9966 10.5654H13.7926V11.9764H14.0476C16.0196 11.9764 17.6006 12.5544 17.6006 14.3224C17.6006 15.8694 16.4446 16.7024 14.8126 16.7024Z" fill="#0315B6"/>
<path d="M82.6463 46.9289V52.6239H78.2433L82.6463 46.9289ZM86.4713 52.6239H84.2103V44.8039H82.6293L76.5263 52.6239V54.0859H82.6463V57.1289H84.2103V54.0859H86.4713V52.6239Z" fill="#0315B6"/>
<path d="M163.521 44.8763C161.804 44.8763 160.988 43.9413 160.733 42.3773H159.135C159.356 44.3663 160.682 46.1683 163.521 46.1683C165.816 46.1683 167.907 44.7063 167.907 41.8843C167.907 39.1643 166.02 37.6343 163.861 37.6343C162.841 37.6343 161.872 37.9403 161.209 38.5693L161.634 35.0673H167.448V33.6223H160.376L159.577 40.2523L161.124 40.3373C161.396 39.7253 162.229 38.9773 163.504 38.9773C164.847 38.9773 166.275 39.8613 166.275 41.9013C166.275 43.8053 165 44.8763 163.521 44.8763Z" fill="#0315B6"/>
<path d="M189.797 102.017C189.797 100.334 190.885 99.0929 192.5 99.0929C194.081 99.0929 195.186 100.334 195.186 102.017C195.186 103.7 194.047 104.89 192.483 104.89C190.851 104.89 189.797 103.717 189.797 102.017ZM192.636 94.7069C193.911 94.7069 194.744 95.3869 194.948 96.4919H196.631C196.359 94.9279 195.237 93.4149 192.823 93.4149C189.236 93.4149 188.012 96.7639 188.012 100.232C188.012 104.04 189.423 106.182 192.5 106.182C195.135 106.182 196.835 104.227 196.835 101.932C196.835 99.4669 195.152 97.7499 192.857 97.7499C191.225 97.7499 190.171 98.4979 189.61 99.4669C189.695 96.6109 190.715 94.7069 192.636 94.7069Z" fill="#0315B6"/>
<path d="M695.375 191.044H702.107C699.03 193.713 697.092 197.487 696.82 201.924H698.69C698.979 197.3 700.849 193.509 703.909 191.044V189.599H695.375V191.044Z" fill="#0315B6"/>
<path d="M728.042 140.163C725.526 140.163 723.928 141.489 723.928 143.308C723.928 144.328 724.404 145.467 725.628 146.147C724.013 146.776 723.537 148.136 723.537 149.241C723.537 151.604 725.509 152.93 728.042 152.93C730.558 152.93 732.53 151.604 732.53 149.241C732.53 148.119 732.037 146.776 730.456 146.147C731.68 145.467 732.156 144.328 732.156 143.308C732.156 141.489 730.558 140.163 728.042 140.163ZM728.042 146.793C729.793 146.793 730.898 147.796 730.898 149.241C730.898 150.686 729.793 151.638 728.042 151.638C726.274 151.638 725.186 150.686 725.186 149.241C725.186 147.796 726.274 146.793 728.042 146.793ZM730.592 143.495C730.592 144.736 729.589 145.654 728.042 145.654C726.495 145.654 725.475 144.736 725.475 143.495C725.475 142.271 726.478 141.455 728.042 141.455C729.589 141.455 730.592 142.271 730.592 143.495Z" fill="#0315B6"/>
<path d="M671.881 85.492C671.881 87.175 670.81 88.399 669.195 88.399C667.614 88.399 666.509 87.175 666.509 85.492C666.509 83.809 667.614 82.619 669.212 82.619C670.844 82.619 671.881 83.792 671.881 85.492ZM669.042 92.802C667.767 92.802 666.951 92.122 666.747 91.017H665.064C665.336 92.581 666.458 94.094 668.872 94.094C672.408 94.094 673.683 90.745 673.683 87.277C673.683 83.469 672.272 81.327 669.195 81.327C666.56 81.327 664.86 83.282 664.86 85.56C664.86 88.059 666.543 89.759 668.821 89.759C670.453 89.759 671.524 89.011 672.085 88.042C672 90.898 670.946 92.802 669.042 92.802Z" fill="#0315B6"/>
<path d="M756.557 87.2754V74.9504H755.503C754.84 76.2764 753.905 76.5314 752.154 76.5824V77.6364H755.01V87.2754H756.557ZM766.964 81.1044C766.964 84.5554 765.774 86.2044 763.819 86.2044C761.864 86.2044 760.674 84.5554 760.674 81.1044C760.674 77.6874 761.864 76.0214 763.819 76.0214C765.74 76.0214 766.964 77.6874 766.964 81.1044ZM768.613 81.1044C768.613 77.2114 767.1 74.7294 763.819 74.7294C760.538 74.7294 759.025 77.2114 759.025 81.1044C759.025 84.9974 760.538 87.4964 763.819 87.4964C767.1 87.4964 768.613 84.9974 768.613 81.1044Z" fill="#0315B6"/>
<path d="M835.274 134.078V121.753H834.22C833.557 123.079 832.622 123.334 830.871 123.385V124.439H833.727V134.078H835.274ZM841.865 134.078V121.753H840.811C840.148 123.079 839.213 123.334 837.462 123.385V124.439H840.318V134.078H841.865Z" fill="#0315B6"/>
<path d="M1036.86 118.85V106.525H1035.81C1035.14 107.851 1034.21 108.106 1032.46 108.157V109.211H1035.31V118.85H1036.86ZM1043.65 106.304C1041.01 106.304 1039.31 107.919 1039.36 110.367H1040.96C1041.01 108.327 1042.29 107.596 1043.61 107.596C1045.09 107.596 1045.92 108.446 1045.92 109.738C1045.92 111.931 1043.37 114.243 1039.02 117.456V118.85H1047.9V117.405H1041.13C1044.58 114.906 1047.56 112.39 1047.56 109.534C1047.56 107.443 1045.92 106.304 1043.65 106.304Z" fill="#0315B6"/>
<path d="M1102.52 203.512V191.187H1101.47C1100.8 192.513 1099.87 192.768 1098.12 192.819V193.873H1100.97V203.512H1102.52ZM1108.97 202.441C1107.22 202.441 1106.35 201.387 1106.16 199.874H1104.56C1104.75 201.931 1106.03 203.733 1108.95 203.733C1111.31 203.733 1113.4 202.526 1113.4 200.044C1113.4 198.735 1112.89 197.545 1111.06 196.95C1112.35 196.423 1113.06 195.369 1113.06 194.094C1113.06 191.833 1111.19 190.966 1109.07 190.966C1106.48 190.966 1104.94 192.479 1104.75 194.655H1106.35C1106.48 193.244 1107.39 192.258 1109.03 192.258C1110.34 192.258 1111.43 192.955 1111.43 194.264C1111.43 195.709 1110.31 196.304 1108.15 196.304H1107.95V197.715H1108.2C1110.17 197.715 1111.75 198.293 1111.75 200.061C1111.75 201.608 1110.6 202.441 1108.97 202.441Z" fill="#0315B6"/>
<path d="M1085.37 327.594V315.269H1084.31C1083.65 316.595 1082.72 316.85 1080.97 316.901V317.955H1083.82V327.594H1085.37ZM1093.43 317.394V323.089H1089.03L1093.43 317.394ZM1097.25 323.089H1094.99V315.269H1093.41L1087.31 323.089V324.551H1093.43V327.594H1094.99V324.551H1097.25V323.089Z" fill="#0315B6"/>
<path d="M976.869 466.73V454.405H975.815C975.152 455.731 974.217 455.986 972.466 456.037V457.091H975.322V466.73H976.869ZM983.655 465.659C981.938 465.659 981.122 464.724 980.867 463.16H979.269C979.49 465.149 980.816 466.951 983.655 466.951C985.95 466.951 988.041 465.489 988.041 462.667C988.041 459.947 986.154 458.417 983.995 458.417C982.975 458.417 982.006 458.723 981.343 459.352L981.768 455.85H987.582V454.405H980.51L979.711 461.035L981.258 461.12C981.53 460.508 982.363 459.76 983.638 459.76C984.981 459.76 986.409 460.644 986.409 462.684C986.409 464.588 985.134 465.659 983.655 465.659Z" fill="#0315B6"/>
<path d="M780.71 388.889V376.564H779.656C778.993 377.89 778.058 378.145 776.307 378.196V379.25H779.163V388.889H780.71ZM784.962 384.945C784.962 383.262 786.05 382.021 787.665 382.021C789.246 382.021 790.351 383.262 790.351 384.945C790.351 386.628 789.212 387.818 787.648 387.818C786.016 387.818 784.962 386.645 784.962 384.945ZM787.801 377.635C789.076 377.635 789.909 378.315 790.113 379.42H791.796C791.524 377.856 790.402 376.343 787.988 376.343C784.401 376.343 783.177 379.692 783.177 383.16C783.177 386.968 784.588 389.11 787.665 389.11C790.3 389.11 792 387.155 792 384.86C792 382.395 790.317 380.678 788.022 380.678C786.39 380.678 785.336 381.426 784.775 382.395C784.86 379.539 785.88 377.635 787.801 377.635Z" fill="#0315B6"/>
<path d="M597.312 375.865V363.54H596.258C595.595 364.866 594.66 365.121 592.909 365.172V366.226H595.765V375.865H597.312ZM599.151 364.985H605.883C602.806 367.654 600.868 371.428 600.596 375.865H602.466C602.755 371.241 604.625 367.45 607.685 364.985V363.54H599.151V364.985Z" fill="#0315B6"/>
<path d="M540.121 312.262V299.937H539.067C538.404 301.263 537.469 301.518 535.718 301.569V302.623H538.574V312.262H540.121ZM547.093 299.716C544.577 299.716 542.979 301.042 542.979 302.861C542.979 303.881 543.455 305.02 544.679 305.7C543.064 306.329 542.588 307.689 542.588 308.794C542.588 311.157 544.56 312.483 547.093 312.483C549.609 312.483 551.581 311.157 551.581 308.794C551.581 307.672 551.088 306.329 549.507 305.7C550.731 305.02 551.207 303.881 551.207 302.861C551.207 301.042 549.609 299.716 547.093 299.716ZM547.093 306.346C548.844 306.346 549.949 307.349 549.949 308.794C549.949 310.239 548.844 311.191 547.093 311.191C545.325 311.191 544.237 310.239 544.237 308.794C544.237 307.349 545.325 306.346 547.093 306.346ZM549.643 303.048C549.643 304.289 548.64 305.207 547.093 305.207C545.546 305.207 544.526 304.289 544.526 303.048C544.526 301.824 545.529 301.008 547.093 301.008C548.64 301.008 549.643 301.824 549.643 303.048Z" fill="#0315B6"/>
<path d="M643.441 283.6V271.275H642.387C641.724 272.601 640.789 272.856 639.038 272.907V273.961H641.894V283.6H643.441ZM652.828 275.219C652.828 276.902 651.757 278.126 650.142 278.126C648.561 278.126 647.456 276.902 647.456 275.219C647.456 273.536 648.561 272.346 650.159 272.346C651.791 272.346 652.828 273.519 652.828 275.219ZM649.989 282.529C648.714 282.529 647.898 281.849 647.694 280.744H646.011C646.283 282.308 647.405 283.821 649.819 283.821C653.355 283.821 654.63 280.472 654.63 277.004C654.63 273.196 653.219 271.054 650.142 271.054C647.507 271.054 645.807 273.009 645.807 275.287C645.807 277.786 647.49 279.486 649.768 279.486C651.4 279.486 652.471 278.738 653.032 277.769C652.947 280.625 651.893 282.529 649.989 282.529Z" fill="#0315B6"/>
<path d="M577.243 228.786C574.608 228.786 572.908 230.401 572.959 232.849H574.557C574.608 230.809 575.883 230.078 577.209 230.078C578.688 230.078 579.521 230.928 579.521 232.22C579.521 234.413 576.971 236.725 572.619 239.938V241.332H581.493V239.887H574.727C578.178 237.388 581.153 234.872 581.153 232.016C581.153 229.925 579.521 228.786 577.243 228.786ZM590.892 235.161C590.892 238.612 589.702 240.261 587.747 240.261C585.792 240.261 584.602 238.612 584.602 235.161C584.602 231.744 585.792 230.078 587.747 230.078C589.668 230.078 590.892 231.744 590.892 235.161ZM592.541 235.161C592.541 231.268 591.028 228.786 587.747 228.786C584.466 228.786 582.953 231.268 582.953 235.161C582.953 239.054 584.466 241.553 587.747 241.553C591.028 241.553 592.541 239.054 592.541 235.161Z" fill="#0315B6"/>
<path d="M178.959 129.536C176.324 129.536 174.624 131.151 174.675 133.599H176.273C176.324 131.559 177.599 130.828 178.925 130.828C180.404 130.828 181.237 131.678 181.237 132.97C181.237 135.163 178.687 137.475 174.335 140.688V142.082H183.209V140.637H176.443C179.894 138.138 182.869 135.622 182.869 132.766C182.869 130.675 181.237 129.536 178.959 129.536ZM188.46 142.082V129.757H187.406C186.743 131.083 185.808 131.338 184.057 131.389V132.443H186.913V142.082H188.46Z" fill="#0315B6"/>
</svg>
