<svg width="155" height="259" viewBox="0 0 155 259" fill="none" xmlns="http://www.w3.org/2000/svg">
<path d="M38.2984 124.607V112.282H37.2444C36.5814 113.608 35.6464 113.863 33.8954 113.914V114.968H36.7514V124.607H38.2984ZM45.0842 123.536C43.3672 123.536 42.5512 122.601 42.2962 121.037H40.6982C40.9192 123.026 42.2452 124.828 45.0842 124.828C47.3792 124.828 49.4702 123.366 49.4702 120.544C49.4702 117.824 47.5832 116.294 45.4242 116.294C44.4042 116.294 43.4352 116.6 42.7722 117.229L43.1972 113.727H49.0112V112.282H41.9392L41.1402 118.912L42.6872 118.997C42.9592 118.385 43.7922 117.637 45.0672 117.637C46.4102 117.637 47.8382 118.521 47.8382 120.561C47.8382 122.465 46.5632 123.536 45.0842 123.536Z" fill="#0315B6"/>
<path d="M139.617 238.573L138.461 181.756L109.069 174.048L85.688 177.023L82.0746 213.37C79.3539 215.75 75.4147 214.362 73.7851 213.37L75.9106 178.299L61.8822 180.637L63.7952 254.817C59.8843 260.259 55.364 257.084 53.5927 254.817L51.6798 193.815L23.1979 178.299L17.2465 222.211C13.3356 227.923 9.56959 224.591 8.17548 222.211C22.458 119.059 9.90279 34.0967 1.83984 4.50948L12.7271 4.07764L77.8847 1.18457H86.4144L88.294 112.795C100.322 114.992 132.822 121.902 147.569 125.083C157.978 128.668 152.966 131.974 149.159 133.179L150.171 238.573C145.545 244.356 141.207 240.982 139.617 238.573Z" stroke="#0315B6" stroke-width="2"/>
</svg>
