<svg width="783" height="374" viewBox="0 0 783 374" fill="none" xmlns="http://www.w3.org/2000/svg">
<path d="M95.7091 365.227L103.202 302.564H52.0966C2.13674 242.075 -1.38026 149.46 3.10622 110.714C-6.95666 90.5882 62.4849 71.4092 98.4635 64.3355L90.4896 41.117C83.7351 31.1729 103.713 35.7868 114.546 39.3367C129.553 6.95395 174.77 0.833275 195.503 1.82079H523.774C639.817 -2.09728 650.472 22.1537 661.468 47.1811L661.738 47.7956C684.356 48.0415 686.836 49.9467 685.248 50.8686L678.948 69.0003L685.248 72.8908C714.095 70.4461 726.196 78.3914 728.64 82.6696C823.981 67.0239 768.366 222.747 728.64 302.564H674.858L678.525 372.359H666.302L649.19 302.564H127.235L107.607 368.194C101.646 372.53 97.1913 368.023 95.7091 365.227Z" stroke="#0315B6" stroke-width="2"/>
</svg>
