<svg width="772" height="419" viewBox="0 0 772 419" fill="none" xmlns="http://www.w3.org/2000/svg">
<path d="M770.634 211.415C770.634 268.088 728.108 319.621 658.853 357.044C589.637 394.446 493.948 417.61 388.198 417.61C282.448 417.61 186.759 394.446 117.544 357.044C48.2882 319.621 5.7627 268.088 5.7627 211.415C5.7627 154.742 48.2882 103.21 117.544 65.7864C186.759 28.3848 282.448 5.2207 388.198 5.2207C493.948 5.2207 589.637 28.3848 658.853 65.7864C728.108 103.21 770.634 154.742 770.634 211.415Z" stroke="#0315B6" stroke-width="2"/>
<circle cx="4.76277" cy="211.416" r="3.86335" fill="#0315B6"/>
<circle cx="6.28523" cy="197.854" r="3.86335" fill="#0315B6"/>
<circle cx="8.62605" cy="184.287" r="3.86335" fill="#0315B6"/>
<circle cx="12.4893" cy="170.725" r="3.86335" fill="#0315B6"/>
<circle cx="18.4405" cy="158.035" r="3.86335" fill="#0315B6"/>
<circle cx="26.1671" cy="145.346" r="3.86335" fill="#0315B6"/>
<circle cx="33.8936" cy="132.656" r="3.86335" fill="#0315B6"/>
<circle cx="45.3145" cy="118.953" r="3.86335" fill="#0315B6"/>
<circle cx="56.7344" cy="107.531" r="3.86335" fill="#0315B6"/>
<circle cx="69.4239" cy="96.6192" r="3.86335" fill="#0315B6"/>
<circle cx="80.4981" cy="87.5899" r="3.86335" fill="#0315B6"/>
<circle cx="92.7208" cy="78.9903" r="3.86335" fill="#0315B6"/>
<circle cx="105.303" cy="71.2637" r="3.86335" fill="#0315B6"/>
<circle cx="117.678" cy="63.5372" r="3.86335" fill="#0315B6"/>
<circle cx="132.323" cy="57.1192" r="3.86335" fill="#0315B6"/>
<circle cx="146.143" cy="51.086" r="3.86335" fill="#0315B6"/>
<circle cx="160.787" cy="45.5176" r="3.86335" fill="#0315B6"/>
<circle cx="175.225" cy="39.9493" r="3.86335" fill="#0315B6"/>
<circle cx="189.663" cy="34.793" r="3.86335" fill="#0315B6"/>
<circle cx="203.895" cy="29.6583" r="3.86335" fill="#0315B6"/>
<circle cx="219.776" cy="25.795" r="3.86335" fill="#0315B6"/>
<circle cx="234.009" cy="21.9317" r="3.86335" fill="#0315B6"/>
<circle cx="249.066" cy="18.0684" r="3.86335" fill="#0315B6"/>
<circle cx="265.36" cy="15.5919" r="3.86335" fill="#0315B6"/>
<circle cx="281.839" cy="12.5762" r="3.86335" fill="#0315B6"/>
<circle cx="297.537" cy="10.3419" r="3.86335" fill="#0315B6"/>
<circle cx="314.45" cy="7.8653" r="3.86335" fill="#0315B6"/>
<circle cx="330.148" cy="6.47859" r="3.86335" fill="#0315B6"/>
<circle cx="347.062" cy="5.63093" r="3.86335" fill="#0315B6"/>
<circle cx="365.782" cy="4.00202" r="3.86335" fill="#0315B6"/>
<circle cx="384.503" cy="4.22077" r="3.86335" fill="#0315B6"/>
<circle cx="403.223" cy="4.22077" r="3.86335" fill="#0315B6"/>
<circle cx="420.137" cy="4.84968" r="3.86335" fill="#0315B6"/>
<circle cx="437.051" cy="6.47859" r="3.86335" fill="#0315B6"/>
<circle cx="453.964" cy="7.8653" r="3.86335" fill="#0315B6"/>
<circle cx="469.662" cy="9.49421" r="3.86335" fill="#0315B6"/>
<circle cx="485.359" cy="11.7286" r="3.86335" fill="#0315B6"/>
<circle cx="502.272" cy="14.2051" r="3.86335" fill="#0315B6"/>
<circle cx="519.184" cy="17.2208" r="3.86335" fill="#0315B6"/>
<circle cx="534.57" cy="20.2384" r="3.86335" fill="#0315B6"/>
<circle cx="551.578" cy="24.1016" r="3.86335" fill="#0315B6"/>
<circle cx="566.966" cy="27.9649" r="3.86335" fill="#0315B6"/>
<circle cx="580.328" cy="31.8282" r="3.86335" fill="#0315B6"/>
<circle cx="595.147" cy="37.3848" r="3.86335" fill="#0315B6"/>
<circle cx="609.318" cy="42.6485" r="3.86335" fill="#0315B6"/>
<circle cx="623.087" cy="48.1173" r="3.86335" fill="#0315B6"/>
<circle cx="636.449" cy="53.1778" r="3.86335" fill="#0315B6"/>
</svg>
