<svg width="876" height="655" viewBox="0 0 876 655" fill="none" xmlns="http://www.w3.org/2000/svg">
<path d="M251.911 650.484L38.6188 617.255L64.7894 490.327L4.59668 351.622L115.823 265.258L26.8419 104.307L207.321 3.91193L407.627 3.91113L573.196 57.3534L704.666 24.4864L872.159 233.853L785.547 389.662L872.159 572.765L695.506 650.484L482.379 602.899L251.911 650.484Z" stroke="#0315B6" stroke-width="2"/>
<rect x="23.0659" y="100.193" width="7.39001" height="7.39001" fill="#0315B6"/>
<rect x="204.275" y="0.21582" width="7.39001" height="7.39001" fill="#0315B6"/>
<rect x="112.024" y="261.939" width="7.39001" height="7.39001" fill="#0315B6"/>
<rect x="0.901855" y="348.587" width="7.39001" height="7.39001" fill="#0315B6"/>
<rect x="60.3169" y="485.104" width="7.39001" height="7.39001" fill="#0315B6"/>
<rect x="34.8457" y="612.562" width="7.39001" height="7.39001" fill="#0315B6"/>
<rect x="248.044" y="646.788" width="7.39001" height="7.39001" fill="#0315B6"/>
<rect x="478.975" y="599.3" width="7.39001" height="7.39001" fill="#0315B6"/>
<rect x="690.757" y="646.788" width="7.39001" height="7.39001" fill="#0315B6"/>
<rect x="868.465" y="569.046" width="7.39001" height="7.39001" fill="#0315B6"/>
<rect x="781.559" y="385.506" width="7.39001" height="7.39001" fill="#0315B6"/>
<rect x="868.465" y="229.869" width="7.39001" height="7.39001" fill="#0315B6"/>
<rect x="700.14" y="21.4023" width="7.39001" height="7.39001" fill="#0315B6"/>
<rect x="568.477" y="53.8799" width="7.39001" height="7.39001" fill="#0315B6"/>
<rect x="404.497" y="0.21582" width="7.39001" height="7.39001" fill="#0315B6"/>
</svg>
